<svg version="1.2" xmlns="http://www.w3.org/2000/svg" viewBox="0 0 440 189" width="440" height="189">
	<title>4people-svg</title>
	<defs>
		<clipPath clipPathUnits="userSpaceOnUse" id="cp1">
			<path d="m0 0h439.08v188.09h-439.08z"/>
		</clipPath>
	</defs>
	<style>
		.s0 { fill: #4294ff } 
		.s1 { fill: #e6ecff } 
		.s2 { fill: #d0dbf7 } 
		.s3 { fill: #376cfb } 
	</style>
	<g id="Clip-Path: icon" clip-path="url(#cp1)">
		<g id="icon">
			<path id="Path_3336" class="s0" d="m230.4 94q0 0.6-0.2 1.2-0.2 0.5-0.6 0.9-0.4 0.4-1 0.7-0.5 0.2-1.1 0.2h-32.3c-0.8 0-1.6-0.3-2.1-0.9-0.6-0.5-0.9-1.3-0.9-2.1 0-0.7 0.3-1.5 0.9-2 0.5-0.6 1.3-0.9 2.1-0.9h32.3q0.6 0 1.1 0.2 0.6 0.3 1 0.7 0.4 0.4 0.6 0.9 0.2 0.6 0.2 1.1z"/>
			<path id="Path_3337" class="s0" d="m230.4 79.4q0 0.8-0.4 1.5-0.4 0.7-1.1 1-0.7 0.4-1.5 0.4-0.9-0.1-1.5-0.5l-17.7-11.8c-0.6-0.4-1.1-1.1-1.2-1.8-0.2-0.8 0-1.6 0.4-2.2 0.4-0.7 1.1-1.1 1.9-1.3 0.7-0.1 1.5 0 2.2 0.5l17.6 11.7q0.3 0.2 0.6 0.5 0.2 0.2 0.4 0.6 0.2 0.3 0.2 0.6 0.1 0.4 0.1 0.8z"/>
			<path id="Path_3338" class="s0" d="m230.4 108.7q0 0.4-0.1 0.8 0 0.3-0.2 0.6-0.2 0.3-0.4 0.6-0.3 0.3-0.6 0.5l-17.6 11.7c-0.7 0.5-1.5 0.6-2.2 0.5-0.8-0.2-1.5-0.6-1.9-1.3-0.4-0.6-0.6-1.4-0.4-2.2 0.1-0.7 0.6-1.4 1.2-1.8l17.7-11.8q0.6-0.5 1.5-0.5 0.8 0 1.5 0.3 0.7 0.4 1.1 1.1 0.4 0.7 0.4 1.5z"/>
			<path id="Path_3339" class="s1" d="m40.6 66.9c3.6 1.5 6.8 3.6 9.6 6.4 2.7 2.7 4.9 5.9 6.3 9.5 1.5 3.6 2.3 7.4 2.3 11.2 0 11.9-7.2 22.6-18.2 27.2-10.9 4.5-23.6 2-32-6.4-8.4-8.4-10.9-21-6.4-32 4.6-11 15.3-18.1 27.2-18.1 3.8 0 7.7 0.7 11.2 2.2z"/>
			<path id="Path_3340" class="s0" d="m33.9 71.4c1.4 0.6 2.7 1.5 3.8 2.6 1.1 1.1 2 2.4 2.5 3.8 0.6 1.4 0.9 2.9 0.9 4.5 0 4.7-2.8 9-7.2 10.9-4.4 1.8-9.5 0.8-12.8-2.6-3.4-3.4-4.4-8.4-2.6-12.8 1.8-4.4 6.1-7.3 10.9-7.3 1.5 0 3.1 0.3 4.5 0.9z"/>
			<path id="Path_3341" class="s0" d="m44.6 119.2c-4.6 2.8-9.8 4.2-15.2 4.2-5.4 0-10.7-1.4-15.3-4.2-4.5-2.8-8.3-6.8-10.8-11.6q2.9-1.9 6.1-3.3 3.1-1.4 6.4-2.4 3.3-1 6.7-1.5 3.4-0.5 6.9-0.5 3.4 0 6.9 0.5 3.4 0.5 6.7 1.4 3.3 1 6.4 2.5 3.2 1.4 6 3.3c-2.4 4.8-6.2 8.8-10.8 11.6z"/>
			<path id="Path_3342" class="s0" d="m83.4 35.5c0.8-1.8 1.8-3.4 3.2-4.7 1.4-1.4 3-2.5 4.8-3.2 1.7-0.8 3.7-1.1 5.6-1.1h8.8c0.8 0 1.5 0.3 2.1 0.8 0.5 0.6 0.8 1.3 0.8 2.1 0 0.8-0.3 1.5-0.8 2.1-0.6 0.5-1.3 0.8-2.1 0.8h-8.8c-1.2 0-2.3 0.3-3.4 0.7-1.1 0.4-2 1.1-2.8 1.9-0.9 0.8-1.5 1.8-2 2.9-0.4 1-0.6 2.2-0.6 3.3v50h17.7c0.7 0 1.5 0.3 2 0.9 0.6 0.5 0.9 1.3 0.9 2 0 0.8-0.3 1.6-0.9 2.1-0.5 0.6-1.3 0.9-2 0.9h-17.7v50c0 1.1 0.2 2.3 0.6 3.3 0.5 1.1 1.1 2.1 2 2.9 0.8 0.8 1.7 1.5 2.8 1.9 1.1 0.4 2.2 0.7 3.4 0.7h8.8c0.8 0 1.5 0.3 2.1 0.8 0.5 0.6 0.8 1.3 0.8 2.1 0 0.8-0.3 1.5-0.8 2.1-0.6 0.5-1.3 0.8-2.1 0.8h-8.8c-1.9 0-3.9-0.3-5.6-1.1-1.8-0.7-3.4-1.8-4.8-3.2-1.4-1.3-2.5-2.9-3.2-4.7-0.7-1.8-1.1-3.7-1.1-5.6v-50h-17.6c-0.8 0-1.6-0.3-2.1-0.9-0.6-0.5-0.9-1.3-0.9-2.1 0-0.7 0.3-1.5 0.9-2 0.5-0.6 1.3-0.9 2.1-0.9h17.6v-50c0-1.9 0.4-3.8 1.1-5.6z"/>
			<path id="Path_3343" class="s1" d="m152.3 66.9c3.6 1.5 6.8 3.6 9.5 6.4 2.8 2.7 4.9 5.9 6.4 9.5 1.5 3.6 2.3 7.4 2.3 11.2 0 11.9-7.2 22.6-18.2 27.2-11 4.5-23.6 2-32-6.4-8.4-8.4-10.9-21-6.4-32 4.6-11 15.3-18.1 27.2-18.1 3.8 0 7.6 0.7 11.2 2.2z"/>
			<path id="Path_3344" class="s0" d="m145.6 71.4c1.4 0.6 2.7 1.5 3.8 2.6 1.1 1.1 1.9 2.4 2.5 3.8 0.6 1.4 0.9 2.9 0.9 4.5 0 4.7-2.8 9-7.2 10.9-4.4 1.8-9.5 0.8-12.8-2.6-3.4-3.4-4.4-8.4-2.6-12.8 1.8-4.4 6.1-7.3 10.9-7.3 1.5 0 3 0.3 4.5 0.9z"/>
			<path id="Path_3345" class="s0" d="m156.3 119.2c-4.6 2.8-9.9 4.2-15.2 4.2-5.4 0-10.7-1.4-15.3-4.2-4.6-2.8-8.3-6.8-10.8-11.6q2.9-1.9 6.1-3.3 3.1-1.4 6.4-2.4 3.3-1 6.7-1.5 3.4-0.5 6.9-0.5 3.4 0 6.8 0.5 3.5 0.5 6.8 1.4 3.3 1 6.4 2.5 3.1 1.4 6 3.3c-2.5 4.8-6.2 8.8-10.8 11.6z"/>
			<path id="Path_3346" class="s1" d="m152.3 131.6c3.6 1.4 6.8 3.6 9.5 6.3 2.8 2.8 4.9 6 6.4 9.6 1.5 3.5 2.3 7.3 2.3 11.2 0 11.9-7.2 22.6-18.2 27.2-11 4.5-23.6 2-32-6.4-8.4-8.4-10.9-21.1-6.4-32 4.6-11 15.3-18.2 27.2-18.2 3.8 0 7.6 0.8 11.2 2.3z"/>
			<path id="Path_3347" class="s0" d="m145.6 136.1c1.4 0.6 2.7 1.4 3.8 2.5 1.1 1.1 1.9 2.4 2.5 3.9 0.6 1.4 0.9 2.9 0.9 4.4 0 4.8-2.8 9.1-7.2 10.9-4.4 1.8-9.5 0.8-12.8-2.5-3.4-3.4-4.4-8.5-2.6-12.9 1.8-4.3 6.1-7.2 10.9-7.2 1.5 0 3 0.3 4.5 0.9z"/>
			<path id="Path_3348" class="s0" d="m156.3 183.8c-4.6 2.8-9.9 4.3-15.2 4.3-5.4 0-10.7-1.5-15.3-4.3-4.6-2.8-8.3-6.8-10.8-11.5q2.9-1.9 6.1-3.3 3.1-1.5 6.4-2.5 3.3-0.9 6.7-1.4 3.4-0.5 6.9-0.5 3.4 0 6.8 0.4 3.5 0.5 6.8 1.5 3.3 1 6.4 2.4 3.1 1.5 6 3.4c-2.5 4.7-6.2 8.7-10.8 11.5z"/>
			<path id="Path_3349" class="s1" d="m152.3 2.2c3.6 1.5 6.8 3.7 9.5 6.4 2.8 2.7 4.9 6 6.4 9.5 1.5 3.6 2.3 7.4 2.3 11.3 0 11.9-7.2 22.6-18.2 27.1-11 4.6-23.6 2.1-32-6.3-8.4-8.4-10.9-21.1-6.4-32.1 4.6-10.9 15.3-18.1 27.2-18.1 3.8 0 7.6 0.8 11.2 2.2z"/>
			<path id="Path_3350" class="s0" d="m145.6 6.8c1.4 0.6 2.7 1.4 3.8 2.5 1.1 1.1 1.9 2.4 2.5 3.8 0.6 1.5 0.9 3 0.9 4.5 0 4.8-2.8 9.1-7.2 10.9-4.4 1.8-9.5 0.8-12.8-2.6-3.4-3.3-4.4-8.4-2.6-12.8 1.8-4.4 6.1-7.2 10.9-7.2 1.5 0 3 0.3 4.5 0.9z"/>
			<path id="Path_3351" class="s0" d="m156.3 54.5c-4.6 2.8-9.9 4.3-15.2 4.3-5.4 0-10.7-1.5-15.3-4.3-4.6-2.8-8.3-6.8-10.8-11.6q2.9-1.8 6.1-3.3 3.1-1.4 6.4-2.4 3.3-0.9 6.7-1.4 3.4-0.5 6.9-0.5 3.4-0.1 6.8 0.4 3.5 0.5 6.8 1.5 3.3 0.9 6.4 2.4 3.1 1.4 6 3.3c-2.5 4.8-6.2 8.8-10.8 11.6z"/>
			<path id="Path_3352" class="s1" d="m437.2 39.9q0.6 0.2 1 0.6 0.4 0.4 0.6 1 0.3 0.5 0.3 1.1v102.8q0 0.6-0.3 1.2-0.2 0.6-0.6 1-0.4 0.4-1 0.6-0.5 0.3-1.1 0.3h-181.5q-0.6 0-1.1-0.3-0.6-0.2-1-0.6-0.4-0.4-0.7-1-0.2-0.6-0.2-1.2v-102.8q0-0.6 0.2-1.1 0.3-0.6 0.7-1 0.4-0.4 1-0.6 0.5-0.3 1.1-0.3h181.5q0.6 0 1.1 0.3z"/>
			<path id="Path_3353" class="s2" d="m425.1 67.1q0.6 0.2 1 0.6 0.4 0.4 0.7 1 0.2 0.6 0.2 1.2v48.3q0 0.6-0.2 1.2-0.3 0.5-0.7 1-0.4 0.4-1 0.6-0.5 0.3-1.1 0.3c-1.6 0-3.2 0.3-4.7 0.9-1.4 0.6-2.8 1.5-3.9 2.6-1.1 1.1-2 2.5-2.6 3.9-0.6 1.5-0.9 3.1-0.9 4.7q0 0.6-0.3 1.1-0.2 0.6-0.6 1-0.4 0.4-1 0.6-0.6 0.3-1.2 0.3h-126.9q-0.6 0-1.2-0.3-0.6-0.2-1-0.6-0.4-0.4-0.6-1-0.3-0.5-0.3-1.1c0-1.6-0.3-3.2-0.9-4.7-0.6-1.4-1.5-2.8-2.6-3.9-1.1-1.1-2.5-2-3.9-2.6-1.5-0.6-3.1-0.9-4.7-0.9q-0.6 0-1.1-0.3-0.6-0.2-1-0.6-0.4-0.5-0.7-1-0.2-0.6-0.2-1.2v-48.3q0-0.6 0.2-1.2 0.3-0.6 0.7-1 0.4-0.4 1-0.6 0.5-0.3 1.1-0.3c1.6 0 3.2-0.3 4.7-0.9 1.4-0.6 2.8-1.5 3.9-2.6 1.1-1.1 2-2.5 2.6-3.9 0.6-1.5 0.9-3.1 0.9-4.7q0-0.6 0.3-1.1 0.2-0.6 0.6-1 0.4-0.4 1-0.7 0.6-0.2 1.2-0.2h126.9q0.6 0 1.2 0.2 0.6 0.3 1 0.7 0.4 0.4 0.6 1 0.3 0.5 0.3 1.1c0 1.6 0.3 3.2 0.9 4.7 0.6 1.4 1.5 2.8 2.6 3.9 1.1 1.1 2.5 2 3.9 2.6 1.5 0.6 3.1 0.9 4.7 0.9q0.6 0 1.1 0.3z"/>
			<ellipse id="Path_3354" class="s0" cx="345.3" cy="94" rx="39.3" ry="42.3"/>
			<path id="Path_3355" class="s3" d="m356.1 102.7q0 1.2-0.3 2.3-0.3 1.2-0.9 2.3-0.6 1-1.4 1.9-0.5 0.6-1.1 1.1-0.5 0.6-1.2 1-0.7 0.4-1.4 0.7-0.7 0.2-1.4 0.4v2.8c0 0.8-0.3 1.6-0.9 2.2-0.6 0.6-1.3 0.9-2.2 0.9-0.8 0-1.5-0.3-2.1-0.9-0.6-0.6-0.9-1.4-0.9-2.2v-3.2q-0.8-0.2-1.5-0.5-0.8-0.3-1.5-0.7-0.7-0.4-1.4-0.8-0.7-0.4-1.4-0.9c-0.6-0.5-1-1.3-1.1-2.1-0.1-0.8 0.1-1.6 0.6-2.2 0.5-0.6 1.2-1 2-1.1 0.8-0.1 1.6 0.1 2.2 0.6 0.2 0.1 5.9 4.4 8.7 1q0.3-0.3 0.6-0.7 0.2-0.4 0.4-0.9 0.1-0.4 0.2-0.9 0-0.5-0.1-1c-0.5-1.9-2.7-3.8-5.7-4.9-4.9-1.9-8.4-5.3-9.4-9.1q-0.3-1.2-0.3-2.4 0-1.2 0.3-2.4 0.3-1.1 0.9-2.2 0.6-1.1 1.4-2 0.5-0.6 1.1-1.1 0.5-0.5 1.2-0.9 0.6-0.4 1.4-0.7 0.7-0.3 1.4-0.4v-2.8c0-0.8 0.3-1.6 0.9-2.2 0.6-0.5 1.3-0.8 2.1-0.8 0.8 0 1.6 0.3 2.2 0.8 0.6 0.6 0.9 1.4 0.9 2.2v3.1q0.8 0.3 1.5 0.6 0.8 0.3 1.5 0.7 0.7 0.4 1.4 0.8 0.7 0.4 1.4 0.9c0.6 0.5 1.1 1.3 1.2 2.1 0.1 0.8-0.2 1.6-0.7 2.2-0.5 0.6-1.2 1-2 1.1-0.8 0.1-1.6-0.1-2.2-0.6-0.1 0-5.9-4.4-8.7-1.1q-0.3 0.4-0.6 0.8-0.2 0.4-0.4 0.9-0.1 0.4-0.2 0.9 0 0.5 0.1 1c0.5 1.9 2.7 3.8 5.7 4.9 4.9 1.9 8.4 5.3 9.4 9.1q0.3 1.2 0.3 2.4z"/>
			<path id="Path_3356" class="s0" d="m399.8 97.1h-6.1c-0.8 0-1.5-0.4-2.1-0.9-0.5-0.6-0.8-1.4-0.8-2.2 0-0.7 0.3-1.5 0.8-2.1 0.6-0.5 1.3-0.9 2.1-0.9h6.1c0.8 0 1.6 0.3 2.1 0.9 0.6 0.6 0.9 1.3 0.9 2.1 0 0.9-0.3 1.6-0.9 2.2-0.5 0.6-1.3 0.9-2.1 0.9z"/>
			<path id="Path_3357" class="s0" d="m297 97.1h-6.1c-0.8 0-1.5-0.4-2.1-0.9-0.5-0.6-0.8-1.4-0.8-2.2 0-0.7 0.3-1.5 0.8-2.1 0.6-0.5 1.3-0.9 2.1-0.9h6.1c0.8 0 1.5 0.4 2.1 0.9 0.5 0.6 0.8 1.4 0.8 2.1 0 0.8-0.3 1.6-0.8 2.2-0.6 0.5-1.3 0.9-2.1 0.9z"/>
		</g>
	</g>
</svg>