<svg id="Group_1438" data-name="Group 1438" xmlns="http://www.w3.org/2000/svg" width="224" height="224" viewBox="0 0 224 224">
  <rect id="Rectangle_2105" data-name="Rectangle 2105" width="224" height="224" rx="12" fill="#fff"/>
  <path id="Path_40258" data-name="Path 40258" d="M11,11h9.7v9.7H11Zm9.7,0h9.7v9.7H20.7Zm9.7,0h9.7v9.7h-9.7Zm9.7,0h9.7v9.7h-9.7Zm9.7,0h9.7v9.7h-9.7Zm9.7,0h9.7v9.7h-9.7Zm9.7,0h9.7v9.7h-9.7Zm38.811,0h9.7v9.7h-9.7Zm19.405,0h9.7v9.7h-9.7Zm19.405,0h9.7v9.7h-9.7Zm9.7,0h9.7v9.7h-9.7Zm9.7,0h9.7v9.7h-9.7Zm9.7,0h9.7v9.7h-9.7Zm9.7,0h9.7v9.7h-9.7Zm9.7,0h9.7v9.7h-9.7Zm9.7,0h9.7v9.7h-9.7ZM11,20.7h9.7v9.7H11Zm58.216,0h9.7v9.7h-9.7Zm19.405,0h9.7v9.7h-9.7Zm9.7,0h9.7v9.7h-9.7Zm9.7,0h9.7v9.7h-9.7Zm19.405,0h9.7v9.7h-9.7Zm19.405,0h9.7v9.7h-9.7Zm58.216,0h9.7v9.7h-9.7ZM11,30.405h9.7v9.7H11Zm19.405,0h9.7v9.7h-9.7Zm9.7,0h9.7v9.7h-9.7Zm9.7,0h9.7v9.7h-9.7Zm19.405,0h9.7v9.7h-9.7Zm38.811,0h9.7v9.7h-9.7Zm9.7,0h9.7v9.7h-9.7Zm9.7,0h9.7v9.7h-9.7Zm19.405,0h9.7v9.7h-9.7Zm19.405,0h9.7v9.7h-9.7Zm9.7,0h9.7v9.7h-9.7Zm9.7,0h9.7v9.7h-9.7Zm19.405,0h9.7v9.7h-9.7ZM11,40.108h9.7v9.7H11Zm19.405,0h9.7v9.7h-9.7Zm9.7,0h9.7v9.7h-9.7Zm9.7,0h9.7v9.7h-9.7Zm19.405,0h9.7v9.7h-9.7Zm19.405,0h9.7v9.7h-9.7Zm9.7,0h9.7v9.7h-9.7Zm19.405,0h9.7v9.7h-9.7Zm29.108,0h9.7v9.7h-9.7Zm19.405,0h9.7v9.7h-9.7Zm9.7,0h9.7v9.7h-9.7Zm9.7,0h9.7v9.7h-9.7Zm19.405,0h9.7v9.7h-9.7ZM11,49.811h9.7v9.7H11Zm19.405,0h9.7v9.7h-9.7Zm9.7,0h9.7v9.7h-9.7Zm9.7,0h9.7v9.7h-9.7Zm19.405,0h9.7v9.7h-9.7Zm29.108,0h9.7v9.7h-9.7Zm48.513,0h9.7v9.7h-9.7Zm19.405,0h9.7v9.7h-9.7Zm9.7,0h9.7v9.7h-9.7Zm9.7,0h9.7v9.7h-9.7Zm19.405,0h9.7v9.7h-9.7ZM11,59.513h9.7v9.7H11Zm58.216,0h9.7v9.7h-9.7Zm19.405,0h9.7v9.7h-9.7Zm29.108,0h9.7v9.7h-9.7Zm9.7,0h9.7v9.7h-9.7Zm19.405,0h9.7v9.7h-9.7Zm58.216,0h9.7v9.7h-9.7ZM11,69.216h9.7v9.7H11Zm9.7,0h9.7v9.7H20.7Zm9.7,0h9.7v9.7h-9.7Zm9.7,0h9.7v9.7h-9.7Zm9.7,0h9.7v9.7h-9.7Zm9.7,0h9.7v9.7h-9.7Zm9.7,0h9.7v9.7h-9.7Zm19.405,0h9.7v9.7h-9.7Zm19.405,0h9.7v9.7h-9.7Zm19.405,0h9.7v9.7h-9.7Zm19.405,0h9.7v9.7h-9.7Zm9.7,0h9.7v9.7h-9.7Zm9.7,0h9.7v9.7h-9.7Zm9.7,0h9.7v9.7h-9.7Zm9.7,0h9.7v9.7h-9.7Zm9.7,0h9.7v9.7h-9.7Zm9.7,0h9.7v9.7h-9.7Zm-106.729,9.7h9.7v9.7h-9.7Zm19.405,0h9.7v9.7h-9.7ZM11,88.621h9.7v9.7H11Zm9.7,0h9.7v9.7H20.7Zm9.7,0h9.7v9.7h-9.7Zm9.7,0h9.7v9.7h-9.7Zm9.7,0h9.7v9.7h-9.7Zm19.405,0h9.7v9.7h-9.7Zm9.7,0h9.7v9.7h-9.7Zm9.7,0h9.7v9.7h-9.7Zm29.108,0h9.7v9.7h-9.7Zm19.405,0h9.7v9.7h-9.7Zm19.405,0h9.7v9.7h-9.7Zm19.405,0h9.7v9.7h-9.7Zm19.405,0h9.7v9.7h-9.7ZM11,98.324h9.7v9.7H11Zm19.405,0h9.7v9.7h-9.7Zm9.7,0h9.7v9.7h-9.7Zm19.405,0h9.7v9.7h-9.7Zm19.405,0h9.7v9.7h-9.7Zm9.7,0h9.7v9.7h-9.7Zm9.7,0h9.7v9.7h-9.7Zm48.513,0h9.7v9.7h-9.7Zm19.405,0h9.7v9.7h-9.7Zm9.7,0h9.7v9.7h-9.7Zm9.7,0h9.7v9.7h-9.7Zm9.7,0h9.7v9.7h-9.7Zm9.7,0h9.7v9.7h-9.7ZM11,108.027h9.7v9.7H11Zm9.7,0h9.7v9.7H20.7Zm9.7,0h9.7v9.7h-9.7Zm9.7,0h9.7v9.7h-9.7Zm9.7,0h9.7v9.7h-9.7Zm19.405,0h9.7v9.7h-9.7Zm9.7,0h9.7v9.7h-9.7Zm9.7,0h9.7v9.7h-9.7Zm9.7,0h9.7v9.7h-9.7Zm9.7,0h9.7v9.7h-9.7Zm9.7,0h9.7v9.7h-9.7Zm9.7,0h9.7v9.7h-9.7Zm9.7,0h9.7v9.7h-9.7Zm38.811,0h9.7v9.7h-9.7Zm19.405,0h9.7v9.7h-9.7Zm-155.243,9.7h9.7v9.7h-9.7Zm9.7,0h9.7v9.7h-9.7Zm9.7,0h9.7v9.7h-9.7Zm19.405,0h9.7v9.7h-9.7Zm9.7,0h9.7v9.7h-9.7Zm29.108,0h9.7v9.7h-9.7Zm19.405,0h9.7v9.7h-9.7Zm19.405,0h9.7v9.7h-9.7Zm9.7,0h9.7v9.7h-9.7Zm9.7,0h9.7v9.7h-9.7Zm9.7,0h9.7v9.7h-9.7Zm9.7,0h9.7v9.7h-9.7Zm9.7,0h9.7v9.7h-9.7Zm-155.243,9.7h9.7v9.7h-9.7Zm9.7,0h9.7v9.7h-9.7Zm9.7,0h9.7v9.7h-9.7Zm9.7,0h9.7v9.7h-9.7Zm9.7,0h9.7v9.7h-9.7Zm38.811,0h9.7v9.7h-9.7Zm9.7,0h9.7v9.7h-9.7Zm9.7,0h9.7v9.7h-9.7Zm9.7,0h9.7v9.7h-9.7Zm19.405,0h9.7v9.7h-9.7Zm19.405,0h9.7v9.7h-9.7Zm-106.729,9.7h9.7v9.7h-9.7Zm77.621,0h9.7v9.7h-9.7Zm9.7,0h9.7v9.7h-9.7Zm9.7,0h9.7v9.7h-9.7Zm9.7,0h9.7v9.7h-9.7Zm9.7,0h9.7v9.7h-9.7ZM11,146.837h9.7v9.7H11Zm9.7,0h9.7v9.7H20.7Zm9.7,0h9.7v9.7h-9.7Zm9.7,0h9.7v9.7h-9.7Zm9.7,0h9.7v9.7h-9.7Zm9.7,0h9.7v9.7h-9.7Zm9.7,0h9.7v9.7h-9.7Zm19.405,0h9.7v9.7h-9.7Zm9.7,0h9.7v9.7h-9.7Zm19.405,0h9.7v9.7h-9.7Zm9.7,0h9.7v9.7h-9.7Zm48.513,0h9.7v9.7h-9.7Zm19.405,0h9.7v9.7h-9.7ZM11,156.54h9.7v9.7H11Zm58.216,0h9.7v9.7h-9.7Zm29.108,0h9.7v9.7h-9.7Zm38.811,0h9.7v9.7h-9.7Zm29.108,0h9.7v9.7h-9.7Zm19.405,0h9.7v9.7h-9.7Zm9.7,0h9.7v9.7h-9.7Zm9.7,0h9.7v9.7h-9.7ZM11,166.243h9.7v9.7H11Zm19.405,0h9.7v9.7h-9.7Zm9.7,0h9.7v9.7h-9.7Zm9.7,0h9.7v9.7h-9.7Zm19.405,0h9.7v9.7h-9.7Zm19.405,0h9.7v9.7h-9.7Zm9.7,0h9.7v9.7h-9.7Zm19.405,0h9.7v9.7h-9.7Zm19.405,0h9.7v9.7h-9.7Zm9.7,0h9.7v9.7h-9.7Zm9.7,0h9.7v9.7h-9.7Zm38.811,0h9.7v9.7h-9.7Zm9.7,0h9.7v9.7h-9.7ZM11,175.945h9.7v9.7H11Zm19.405,0h9.7v9.7h-9.7Zm9.7,0h9.7v9.7h-9.7Zm9.7,0h9.7v9.7h-9.7Zm19.405,0h9.7v9.7h-9.7Zm19.405,0h9.7v9.7h-9.7Zm9.7,0h9.7v9.7h-9.7Zm58.216,0h9.7v9.7h-9.7Zm9.7,0h9.7v9.7h-9.7Zm9.7,0h9.7v9.7h-9.7ZM11,185.648h9.7v9.7H11Zm19.405,0h9.7v9.7h-9.7Zm9.7,0h9.7v9.7h-9.7Zm9.7,0h9.7v9.7h-9.7Zm19.405,0h9.7v9.7h-9.7Zm19.405,0h9.7v9.7h-9.7Zm19.405,0h9.7v9.7h-9.7Zm19.405,0h9.7v9.7h-9.7Zm19.405,0h9.7v9.7h-9.7ZM11,195.351h9.7v9.7H11Zm58.216,0h9.7v9.7h-9.7Zm19.405,0h9.7v9.7h-9.7Zm19.405,0h9.7v9.7h-9.7Zm19.405,0h9.7v9.7h-9.7Zm9.7,0h9.7v9.7h-9.7Zm38.811,0h9.7v9.7h-9.7Zm9.7,0h9.7v9.7h-9.7ZM11,205.053h9.7v9.7H11Zm9.7,0h9.7v9.7H20.7Zm9.7,0h9.7v9.7h-9.7Zm9.7,0h9.7v9.7h-9.7Zm9.7,0h9.7v9.7h-9.7Zm9.7,0h9.7v9.7h-9.7Zm9.7,0h9.7v9.7h-9.7Zm19.405,0h9.7v9.7h-9.7Zm9.7,0h9.7v9.7h-9.7Zm9.7,0h9.7v9.7h-9.7Zm29.108,0h9.7v9.7h-9.7Zm9.7,0h9.7v9.7h-9.7Zm9.7,0h9.7v9.7h-9.7Zm9.7,0h9.7v9.7h-9.7Zm29.108,0h9.7v9.7h-9.7Z" transform="translate(-1.297 -1.297)"/>
</svg>
