<svg xmlns="http://www.w3.org/2000/svg" width="35.283" height="34.913" viewBox="0 0 35.283 34.913">
  <g id="Group_1435" data-name="Group 1435" transform="translate(-0.065 -0.064)">
    <path id="Path_40247" data-name="Path 40247" d="M24.279,12.5V22.777a1.526,1.526,0,0,1-1.5,1.5H12.5a1.506,1.506,0,0,1-1.5-1.5V12.5A1.487,1.487,0,0,1,12.5,11H22.777A1.506,1.506,0,0,1,24.279,12.5Z" transform="translate(-9.436 -9.436)" fill="none" stroke="#fff" stroke-miterlimit="10" stroke-width="3"/>
    <path id="Path_40248" data-name="Path 40248" d="M201.394,12.5V22.777a1.526,1.526,0,0,1-1.5,1.5H189.618a1.506,1.506,0,0,1-1.5-1.5V12.5a1.487,1.487,0,0,1,1.5-1.5h10.275A1.506,1.506,0,0,1,201.394,12.5Z" transform="translate(-167.547 -9.436)" fill="none" stroke="#fff" stroke-miterlimit="10" stroke-width="3"/>
    <path id="Path_40249" data-name="Path 40249" d="M191.505,186.519a1.5,1.5,0,1,0,1.059.438A1.5,1.5,0,0,0,191.505,186.519Z" transform="translate(-169.236 -166.122)" fill="#fff"/>
    <path id="Path_40250" data-name="Path 40250" d="M283.647,186.554h0a1.5,1.5,0,1,0,1.059.438,1.5,1.5,0,0,0-1.059-.438Z" transform="translate(-251.492 -166.153)" fill="#fff"/>
    <path id="Path_40251" data-name="Path 40251" d="M283.612,278.7h0a1.5,1.5,0,1,0,1.059.438,1.5,1.5,0,0,0-1.059-.438Z" transform="translate(-251.46 -248.411)" fill="#fff"/>
    <path id="Path_40252" data-name="Path 40252" d="M191.469,278.66a1.5,1.5,0,1,0,1.059.438,1.5,1.5,0,0,0-1.059-.438Z" transform="translate(-169.204 -248.377)" fill="#fff"/>
    <path id="Path_40253" data-name="Path 40253" d="M237.539,232.59h0a1.5,1.5,0,1,0,1.5,1.5,1.5,1.5,0,0,0-1.5-1.5Z" transform="translate(-210.331 -207.25)" fill="#fff"/>
    <path id="Path_40254" data-name="Path 40254" d="M22.777,184.663H12.5a1.506,1.506,0,0,0-1.5,1.5V196.44h0a1.487,1.487,0,0,0,1.5,1.5H22.777a1.506,1.506,0,0,0,1.5-1.5V186.165A1.526,1.526,0,0,0,22.777,184.663Z" transform="translate(-9.436 -164.465)" fill="none" stroke="#fff" stroke-miterlimit="10" stroke-width="3"/>
  </g>
</svg>
