<svg xmlns="http://www.w3.org/2000/svg" xmlns:xlink="http://www.w3.org/1999/xlink" width="178.152" height="250" viewBox="0 0 178.152 250">
  <defs>
    <clipPath id="clip-path">
      <rect id="Rectangle_1027" data-name="Rectangle 1027" width="178.152" height="250" transform="translate(0 0)" fill="none"/>
    </clipPath>
  </defs>
  <g id="icon" clip-path="url(#clip-path)">
    <path id="Path_3358" data-name="Path 3358" d="M343.879,224.79A36.187,36.187,0,1,0,307.692,188.6a36.228,36.228,0,0,0,36.187,36.187" transform="translate(-231.142 -114.497)" fill="#e6ecff"/>
    <path id="Path_3359" data-name="Path 3359" d="M408.337,225.008v11.134H402.77a2.784,2.784,0,0,0,0,5.567h5.567v2.784a2.784,2.784,0,0,0,5.567,0V241.71a11.135,11.135,0,0,0,0-22.269V208.306h5.567a2.784,2.784,0,1,0,0-5.567H413.9v-2.784a2.784,2.784,0,0,0-5.567,0v2.784a11.135,11.135,0,0,0,0,22.269m11.134,5.567a5.573,5.573,0,0,1-5.567,5.567V225.008a5.573,5.573,0,0,1,5.567,5.567m-11.134-22.269v11.134a5.567,5.567,0,1,1,0-11.134" transform="translate(-298.384 -148.119)" fill="#4294ff"/>
    <path id="Path_3360" data-name="Path 3360" d="M36.188,398.57a36.187,36.187,0,1,0,36.187,36.187A36.228,36.228,0,0,0,36.188,398.57" transform="translate(-0.001 -299.412)" fill="#e6ecff"/>
    <path id="Path_3361" data-name="Path 3361" d="M137.05,275.33a2.783,2.783,0,0,0,2.784-2.784V244.71a2.784,2.784,0,1,0-5.567,0v27.836a2.783,2.783,0,0,0,2.784,2.784" transform="translate(-100.862 -181.739)" fill="#4294ff"/>
    <path id="Path_3362" data-name="Path 3362" d="M192.994,317.355a2.783,2.783,0,0,0,2.784-2.784V300.654a2.784,2.784,0,0,0-5.567,0v13.918a2.783,2.783,0,0,0,2.784,2.784" transform="translate(-142.888 -223.764)" fill="#4294ff"/>
    <path id="Path_3363" data-name="Path 3363" d="M81.1,317.355a2.783,2.783,0,0,0,2.784-2.784V300.654a2.784,2.784,0,0,0-5.567,0v13.918a2.783,2.783,0,0,0,2.784,2.784" transform="translate(-58.836 -223.764)" fill="#4294ff"/>
    <path id="Path_3364" data-name="Path 3364" d="M77.783,474.441a14.638,14.638,0,0,1,8.783,2.827,2.783,2.783,0,0,0,3.311-4.475,20.509,20.509,0,0,0-30.3,7.215H54.818a2.784,2.784,0,0,0,0,5.567h3.014a16.933,16.933,0,0,0,0,5.567H54.818a2.784,2.784,0,0,0,0,5.567h4.759a20.509,20.509,0,0,0,30.3,7.215,2.783,2.783,0,1,0-3.311-4.474,14.64,14.64,0,0,1-8.783,2.827,14.8,14.8,0,0,1-11.616-5.567H74.3a2.784,2.784,0,1,0,0-5.567H63.465a13.257,13.257,0,0,1,0-5.567H77.088a2.784,2.784,0,1,0,0-5.567H66.167a14.8,14.8,0,0,1,11.616-5.567" transform="translate(-39.089 -352.225)" fill="#4294ff"/>
    <path id="Path_3365" data-name="Path 3365" d="M6.937,718.657a13.32,13.32,0,0,1,13.676.334l29.535,18.357c-.03-.366-.044-.735-.044-1.109a13.934,13.934,0,0,1,13.918-13.918H98.786a21.484,21.484,0,0,1,17.028-8.351h16.115a21.484,21.484,0,0,1,17.028,8.351h9.71a2.783,2.783,0,0,1,2.783,2.784v50.105a2.783,2.783,0,0,1-2.783,2.784h-27.5a11.393,11.393,0,0,0-8.111,3.36,16.917,16.917,0,0,1-12.048,4.991H89.255a49.981,49.981,0,0,1-27.42-8.169L6.106,741.739a13.491,13.491,0,0,1,.832-23.082" transform="translate(0 -536.345)" fill="#ffe1e1"/>
    <path id="Path_3366" data-name="Path 3366" d="M179.021,796.589a19.507,19.507,0,0,0,19.485,19.485h41.754a2.784,2.784,0,1,0,0-5.567H198.506a13.923,13.923,0,0,1-13.862-12.8l-5.456-3.4a15.474,15.474,0,0,0-.167,2.283" transform="translate(-134.483 -596.694)" fill="#e8c1c1"/>
    <path id="Path_3367" data-name="Path 3367" d="M629.357,713.971h16.7a2.783,2.783,0,0,1,2.784,2.784v66.807a2.783,2.783,0,0,1-2.784,2.784h-16.7a2.783,2.783,0,0,1-2.784-2.784V716.755a2.783,2.783,0,0,1,2.784-2.784" transform="translate(-470.69 -536.345)" fill="#4294ff"/>
    <path id="Path_3368" data-name="Path 3368" d="M444.742,33.4a2.783,2.783,0,0,1-2.784-2.784V2.785a2.784,2.784,0,0,1,5.567,0V30.621a2.783,2.783,0,0,1-2.784,2.784" transform="translate(-332.005 -0.001)" fill="#4294ff"/>
    <path id="Path_3369" data-name="Path 3369" d="M388.8,55.946a2.783,2.783,0,0,1,2.784,2.784V72.648a2.784,2.784,0,1,1-5.567,0V58.73a2.783,2.783,0,0,1,2.784-2.784" transform="translate(-289.979 -42.028)" fill="#4294ff"/>
    <path id="Path_3370" data-name="Path 3370" d="M497.9,72.647V58.729a2.784,2.784,0,0,1,5.567,0V72.647a2.784,2.784,0,1,1-5.567,0" transform="translate(-374.031 -42.027)" fill="#4294ff"/>
  </g>
</svg>
