<svg xmlns="http://www.w3.org/2000/svg" xmlns:xlink="http://www.w3.org/1999/xlink" width="393.962" height="393.967" viewBox="0 0 393.962 393.967">
  <defs>
    <clipPath id="clip-path">
      <rect id="Rectangle_1030" data-name="Rectangle 1030" width="393.962" height="393.967" transform="translate(0 0)" fill="none"/>
    </clipPath>
  </defs>
  <g id="images" transform="translate(0 -0.001)">
    <g id="Group_552" data-name="Group 552" transform="translate(0 0.001)" clip-path="url(#clip-path)">
      <path id="Path_3397" data-name="Path 3397" d="M1068.836,380.065c-.731-2.291-1.27-4.653-2.183-6.881a.792.792,0,0,0-1.318-.438,5.24,5.24,0,0,0,.438,2.4c1.656,5.76,3.45,11.482,4.794,17.328.591,2.377,1.033,4.8,1.716,7.149.152.813,1.381.728,1.593-.018.583-.843-.412-1.5-.553-2.3-1.289-5.8-2.733-11.564-4.486-17.242" transform="translate(-942.652 -329.639)"/>
      <path id="Path_3398" data-name="Path 3398" d="M719.366,1115.234a137.624,137.624,0,0,1-17.617-6.555c-.761-.527-1.589.9-.687,1.192A130.372,130.372,0,0,0,721.8,1117.3a128.706,128.706,0,0,1,14.736,4.6c1.151.36,2.31,1.816,3.521.992-2.729-2.448-6.328-3.368-9.711-4.527-3.621-1.166-7.331-2.039-10.978-3.127" transform="translate(-620.005 -980.943)"/>
      <path id="Path_3399" data-name="Path 3399" d="M213.51,1932.246a8.89,8.89,0,0,0-3.866.208.741.741,0,0,0,.145,1.3,29.623,29.623,0,0,0,3.974-.293c.661-.208.4-1.211-.252-1.214" transform="translate(-185.224 -1709.694)"/>
      <path id="Path_3400" data-name="Path 3400" d="M352.831,2071.356c-3.7,1.563-7.383,3.156-10.963,4.976-3.372,1.79-7.1,2.719-10.613,4.167-1.994.873-4.234,1.066-6.183,2.028-.085.16-.253.479-.338.639.3,1.2,1.645.393,2.407.215,3.2-.765,6.22-2.083,9.325-3.149,5.021-1.623,9.6-4.3,14.45-6.346a15.711,15.711,0,0,0,3.008-1.563c.576-.7-.5-1.385-1.092-.966" transform="translate(-287.35 -1832.783)"/>
      <path id="Path_3401" data-name="Path 3401" d="M762.718,1211.512c-4.39-1.029-8.909-1.292-13.358-1.95a8.4,8.4,0,0,0-2.046-.078c.275,1.489,2.013,1.341,3.142,1.582,4.475.438,8.905,1.233,13.362,1.764.212-.746-.446-1.222-1.1-1.318" transform="translate(-661.281 -1070.222)"/>
      <path id="Path_3402" data-name="Path 3402" d="M296.548,1933.963c4.156-.356,8.367.386,12.481-.468.516-.145,1.515-.591,1.044-1.267-5.593.854-11.26-.126-16.871.528-1.571.3-3.22-1.088-4.661-.293-.134.49.011.969.6,1,2.38.9,4.928.668,7.4.5" transform="translate(-255.283 -1709.773)"/>
      <path id="Path_3403" data-name="Path 3403" d="M2710.455,1122.236c3.394-.891,6.781-1.82,10.231-2.473,5.778-1.01,11.52-2.232,17.305-3.194,1.422-.334,2.989-.293,4.248-1.125-.182-.553-.561-1.289-1.266-.958-3.539.947-7.193,1.326-10.77,2.08-5.229,1.081-10.536,1.79-15.686,3.223a56.186,56.186,0,0,1-7.012,1.861,1.284,1.284,0,0,0-1.192.791c1.348.483,2.785.03,4.141-.2" transform="translate(-2394.757 -986.111)"/>
      <path id="Path_3404" data-name="Path 3404" d="M2727.034,981.46c2.34-.583,4.326-2.039,6.346-3.294,1.749-1.148,3.606-2.113,5.444-3.1,1.411-.739,3.123-.858,4.378-1.89.627-1.01-.691-1.7-1.485-1.1a27.661,27.661,0,0,0-5.155,2.187c-3.324,1.664-6.206,4.055-9.5,5.771-.784.252-1.255,1.571-.03,1.43" transform="translate(-2412.427 -859.966)"/>
      <path id="Path_3405" data-name="Path 3405" d="M2489.919,433.9c.891.126.917-1.014,1.252-1.567,1.6-3.316,3.955-6.194,6.053-9.2.713-.616-.182-2.12-.947-1.307-2.243,3.327-4.876,6.443-6.562,10.112-.227.594-.776,1.749.2,1.961" transform="translate(-2202.775 -373.053)"/>
      <path id="Path_3406" data-name="Path 3406" d="M3079.6,1091.328a31.193,31.193,0,0,0,5.188-.951c.643-.193.806-.6.49-1.218-1.092-.375-2.209.145-3.29.3a11.173,11.173,0,0,0-2.641.683c-.546.219-.52,1.337.252,1.185" transform="translate(-2724.513 -963.655)"/>
      <path id="Path_3407" data-name="Path 3407" d="M2265.423,1287.972c-1.645.037-3.3.033-4.935.2a9.714,9.714,0,0,0-3.012.832c.617,1.058,1.864.832,2.9.8,3.951-.587,8.111.282,11.921-1.166-2.191-.869-4.568-.679-6.87-.665" transform="translate(-1997.59 -1139.673)"/>
      <path id="Path_3408" data-name="Path 3408" d="M2422.133,1092.547c3.959-1.359,7.42-3.81,11.193-5.581,4.048-1.987,8.344-3.428,12.318-5.574.446-.256,1.044-.564.984-1.185.015-.761-.839-1.007-1.448-.977-.635,1.281-2.169,1.493-3.316,2.113a106.674,106.674,0,0,0-14.361,6.841c-1.886,1.129-3.844,2.124-5.808,3.1a.672.672,0,1,0,.438,1.263" transform="translate(-2142.442 -954.984)"/>
      <path id="Path_3409" data-name="Path 3409" d="M776.391,746.008c2.046,1.136,3.257,3.209,4.635,5.013,2.674,3.5,5.478,6.893,8.229,10.324.776.921,1.185,2.2,2.258,2.833.706.063.78-.888.475-1.315a38.786,38.786,0,0,0-4.3-5.86c-2.243-2.845-4.572-5.626-6.677-8.575a13.141,13.141,0,0,0-4.2-3.977c-.394-.3-1.177-.646-1.478-.048-.453.791.535,1.255,1.062,1.6" transform="translate(-685.969 -658.416)"/>
      <path id="Path_3410" data-name="Path 3410" d="M394.624,1137.9c-2.369-.509-4.765-.906-7.119-1.485-9.336-2.633-19.073-3.286-28.539-5.3a4.265,4.265,0,0,0-2.039-.123c.145,1.01,1.125,1.389,1.994,1.563,8.081,1.69,16.318,2.525,24.384,4.278q5.236,1.381,10.576,2.306c.687.178,1.441-.787.743-1.237" transform="translate(-315.837 -1000.725)"/>
      <path id="Path_3411" data-name="Path 3411" d="M464.234,1016.09a42.7,42.7,0,0,1,5.492,2.373c2.421,1.14,4.932,2.109,7.238,3.48.646.349,1.307.891,2.091.62.49-.524-.212-1.058-.59-1.352a54.068,54.068,0,0,0-7.654-3.855,44.038,44.038,0,0,0-6.618-2.8c-.936-.208-1.9-.731-2.867-.457a.749.749,0,0,0,.085,1.114,24.556,24.556,0,0,0,2.822.876" transform="translate(-408.033 -897.285)"/>
      <path id="Path_3412" data-name="Path 3412" d="M2262.417,385.525c4.382-7.193,6.087-15.568,9.752-23.091a50.237,50.237,0,0,0,3.331-8.259c.111-.55-.735-1.511-1.029-.631-1.857,4.427-4.122,8.675-5.927,13.124-2.224,5.838-4.014,11.88-7.052,17.369-.609.668-.052,2.031.925,1.489" transform="translate(-2000.919 -312.527)"/>
      <path id="Path_3413" data-name="Path 3413" d="M988.256,2450.579c-3.58.189-7.16.42-10.744.36-.962,0-1.987-.724-2.882-.1-.438,1.775-.2,3.658-.345,5.481-.743,19.679.549,39.35.531,59.032-.353,1.474,2.213,1.812,2.3.379.033-13.893-.561-27.782-.706-41.678,2.845.613,5.778.308,8.653.175,1.092-.152.984-1.9-.089-2.005-2.815-.654-5.771.134-8.571-.635-.019-6.105.041-12.21.249-18.312,4.137.071,8.267-.286,12.4-.4,1.058.156,1.471-1.292.847-1.968-.416-.49-1.1-.312-1.645-.327" transform="translate(-861.919 -2168.446)"/>
      <path id="Path_3414" data-name="Path 3414" d="M2678.629,2145.742c-1.07-.494-2.065-1.411-3.29-1.374l-.215.256a.613.613,0,0,0,.29.88c6.224,3.762,12.945,6.607,19.307,10.116.824.356,1.66,1.374,2.614.861.03-.211.1-.635.126-.847a39.994,39.994,0,0,0-6.016-3.387c-4.267-2.184-8.646-4.145-12.816-6.506" transform="translate(-2367.086 -1897.502)"/>
      <path id="Path_3415" data-name="Path 3415" d="M2935.249,1986.3a.985.985,0,0,0,.216-1.585c-2.161-.193-3.959-1.541-5.968-2.236-2.982-1.058-5.975-2.076-8.99-3.03a4.244,4.244,0,0,0-2.258-.315c-.089.126-.264.386-.353.512.345,1.032,1.6,1.006,2.455,1.37a100.619,100.619,0,0,1,11.977,4.471c.932.367,1.868,1,2.922.813" transform="translate(-2581.98 -1751.227)"/>
      <path id="Path_3416" data-name="Path 3416" d="M2860.729,2063.96c-6.254-1.965-11.824-5.493-17.383-8.872-.7-.267-1.519-1.144-2.254-.665-.535.468.1,1.048.516,1.292,5.548,3.45,11.082,7.041,17.268,9.269.806.2,1.675.91,2.492.4.594-.55.041-1.367-.639-1.426" transform="translate(-2513.836 -1817.789)"/>
      <path id="Path_3417" data-name="Path 3417" d="M2476.149,2329.79c-5.047-3.406-9.243-7.873-14.108-11.505-.72-.4-1.5-1.344-2.377-.857-.505.613.215,1.117.654,1.433,4.044,2.834,7.438,6.462,11.326,9.5,3.413,2.87,7.379,4.995,10.814,7.839.639.483,1.054-.312,1.307-.776-2.195-2.3-5.061-3.784-7.616-5.629" transform="translate(-2176.349 -2050.519)"/>
      <path id="Path_3418" data-name="Path 3418" d="M3125.986,2065.71c-2.926-1.772-6.417-2.009-9.667-2.785l-.267.238c-.509.442.122,1.047.546,1.225,2.3.988,4.906.951,7.175,2.046.806.26,1.589,1.01,2.48.665a.855.855,0,0,0-.267-1.389" transform="translate(-2757.157 -1825.436)"/>
      <path id="Path_3419" data-name="Path 3419" d="M477.023,256.3a199.879,199.879,0,0,0-7.175-23.544,181.413,181.413,0,0,0-10.9-23.674c-1.842-3.651-4.193-7.011-6.213-10.558a186.479,186.479,0,0,0-56.091-55.994c-2.343-1.37-4.646-2.807-6.959-4.226-1.868-1.177-3.922-2.013-5.812-3.149a189.53,189.53,0,0,0-29.43-12.541c-7.36-2.109-14.706-4.427-22.289-5.6a181.075,181.075,0,0,0-45.072-2.99,193.035,193.035,0,0,0-28.06,3.773c-4.493.921-8.887,2.251-13.31,3.446-5.823,1.552-11.416,3.806-17.053,5.912a179.161,179.161,0,0,0-18.884,9.024c-4.085,1.953-7.787,4.594-11.717,6.837-3.569,2.492-7.26,4.809-10.666,7.531a175.864,175.864,0,0,0-20.607,17.952,187.966,187.966,0,0,0-24.176,30.274c-1.768,3.082-3.751,6.031-5.466,9.143-1.229,2.433-2.577,4.8-3.829,7.227-2.265,4.75-4.46,9.54-6.477,14.4-1.393,3.985-3.056,7.88-4.245,11.932-1.344,4.308-2.522,8.668-3.662,13.031-1.11,4.007-1.634,8.133-2.5,12.188A172.635,172.635,0,0,0,113.92,294.2a183.689,183.689,0,0,0,1.136,24.915c.657,4.052,1.01,8.155,1.935,12.158a128.874,128.874,0,0,0,3.921,16.7,153.416,153.416,0,0,0,5.619,16.815A183.937,183.937,0,0,0,229.7,468.489c3.781,1.4,7.524,2.885,11.353,4.148,7.527,2.161,15.04,4.512,22.8,5.7,4.419,1.018,8.95,1.415,13.428,2.08a199.5,199.5,0,0,0,29.679.917,197.151,197.151,0,0,0,30.429-4.074c2.885-.579,5.7-1.456,8.552-2.176a139.79,139.79,0,0,0,14.624-4.638,184.373,184.373,0,0,0,29.449-13.7c3.491-2.225,7.149-4.182,10.5-6.618a183.712,183.712,0,0,0,65.709-78.736,167.265,167.265,0,0,0,8.563-24.105c1.207-4.17,2.306-8.371,3.153-12.63.587-3.829,1.508-7.6,1.909-11.457a169.5,169.5,0,0,0,1.73-29.037,182.883,182.883,0,0,0-4.56-37.864M123.742,243.409c7.832.6,15.671,1.036,23.507,1.56,13.956.568,27.711,3.183,41.611,4.375,4.441.349,8.9.461,13.343.761,8.664.267,17.317.787,25.984.984,10.042.3,20.1.553,30.114,1.43,2.143.286,4.326.175,6.454.59,3.71-.134,7.353.732,11.015,1.177,2.1.215,4.159.654,6.228,1.055,2.655.472,4.854,2.135,7.008,3.647,1.229.8,1.8,2.213,2.522,3.431.717,1.4,1.72,2.681,2.039,4.252.616,2.317.149,4.72.16,7.078-.111,6.231-.6,12.441-1.3,18.631-.048,3.2-.635,6.376-.427,9.585.253,3.123.16,6.261.33,9.388.212,3.925.568,7.84.661,11.772.178,2.536.873,5.021.858,7.576a9.258,9.258,0,0,1,.256,2.722,37.586,37.586,0,0,1,.1,8.69,4.9,4.9,0,0,1-.68,1.849,3.056,3.056,0,0,1-1.437-.746c-1.326-1.348-.91-3.405-1.222-5.117a89.684,89.684,0,0,1-.643-10.885c.282-3.587-.275-7.163-.212-10.755.052-2.548-.026-5.1.007-7.639a47.582,47.582,0,0,1-.375-9.083c-.026-3.179.62-6.31.891-9.466.772-5.972,2.135-11.947,1.742-18a15.677,15.677,0,0,0-11.327-14.453c-3.42-.375-6.77-1.2-10.164-1.742-1.434-.115-2.86-.364-4.3-.371-3.1.019-6.2-.375-9.3-.2-2.678.178-5.366.178-8.044.312-.015.071-.048.212-.063.282,1.374-.074,2.67.49,4.04.468a101.159,101.159,0,0,1,10.387.665,10.448,10.448,0,0,1,2.369.408,34.985,34.985,0,0,1,6.161,1.248c3.194.509,6.4.962,9.585,1.534a24.565,24.565,0,0,1,4.349,2.354,17.847,17.847,0,0,1,4.445,10.6,81.153,81.153,0,0,1-1.734,14.468c-.776,6.053-1.608,12.136-1.211,18.26.646,5.663.082,11.382.505,17.064a45.6,45.6,0,0,1-.078,5.652,4.884,4.884,0,0,1,.182,1.775,90.3,90.3,0,0,0,.795,10.3c.256,2.091.665,4.248.167,6.335a10.381,10.381,0,0,1-5.481,5.374,10.9,10.9,0,0,1-2.6-.018c-1.385-.037-2.466-1.051-3.465-1.883-.832-1.6-.546-3.495-.524-5.221.81-3.7,1.912-7.364,2.005-11.174a33.382,33.382,0,0,1,.293-4.72c.6-3.6.126-7.271.539-10.888.5-5.641.241-11.382,1.552-16.93.895-3.361,1.493-6.8,2.588-10.108,1.3-4.612,2.637-9.366,2.106-14.2a8.431,8.431,0,0,0-1.875-6.209,12.745,12.745,0,0,0-3.417-3.116v-.03c-1.322-.5-2.614-1.066-3.925-1.59a19.884,19.884,0,0,0-6.172-1.051c-3.272.628-6.692-.108-9.978.464,1.909.475,3.847.817,5.764,1.263,2.3.706,4.739.609,7.048,1.248a16.064,16.064,0,0,1,6.655,3.168c.973.873,2.169,1.641,2.644,2.923a20.786,20.786,0,0,1,.182,11.821c-.817,2.677-1.508,5.392-2.317,8.073-1.155,4.947-2.633,9.867-2.808,14.981-.044,3.584-.386,7.149-.59,10.721-.249,3.617.015,7.268-.527,10.862a37.708,37.708,0,0,1-.988,9.262c-.65,3.235-1.382,6.569-3.257,9.351a5.037,5.037,0,0,1-5.177,2.173,42.836,42.836,0,0,1-6.3-2.08,62.414,62.414,0,0,1-6.584-2.18,39.566,39.566,0,0,0-11.787-3.1,7.732,7.732,0,0,1-4.456-1.9c-1.738-1.563-4.475-1.861-5.659-4.048-1.43-3.316-2.206-6.863-3.35-10.279a71.6,71.6,0,0,1-1.916-7.331c-.442-2.637-1.222-5.255-1.118-7.947,2.269-2.05,5.24-3.58,8.378-3.327,1.987-.219,3.595,1.1,5.11,2.169,1.638,1.255,3.7,2.3,4.378,4.4.531,1.649,1.519,3.331,1.114,5.121-.264,1.155-1.426,1.693-2.232,2.429a49.322,49.322,0,0,0-3.777,3.651c-1.222,1.422-1.452,3.346-1.727,5.128a10.394,10.394,0,0,0,.408,4.345c-.022-1.289-.39-2.633.167-3.862,1.563-3.327,4.078-6.5,7.706-7.643a2.322,2.322,0,0,1,2.886,1.211,40.2,40.2,0,0,0,5.708,11.947c.873.357,1.95,1.519,2.852.847-.46-.813-1.118-1.489-1.615-2.269a23.623,23.623,0,0,1-3.989-8.348c-.111-2.05-.286-4.234.62-6.139a7.728,7.728,0,0,1,2.707-3.617c2.562-1.69,5.162-3.339,7.873-4.779.509-.282,1.018-.564,1.522-.862-2.644-.163-5.158.772-7.657,1.456-1.556,1.055-3.183,2.013-4.649,3.2a14,14,0,0,1-4.037-1.894,8.288,8.288,0,0,1-1.07-6.313c.1-1.081,1.032-1.734,1.716-2.458.821-1.255,1.879-2.347,2.6-3.669a17.835,17.835,0,0,0,.761-4.453c-.034-.223-.1-.672-.141-.895-.9,2.406-2.748,4.234-4.189,6.306-.98,1.556-2.726,2.328-4.233,3.268a5.853,5.853,0,0,1-5.916-.189,13.692,13.692,0,0,0-5.89-.238c-2.823.39-4.939,2.614-7.739,3.038-3.179.568-6.228,1.634-9.362,2.38-6.97,2.343-14.264,3.465-21.476,4.779-5.845-.279-11.835.122-17.513-1.6-2.893-.557-5.385-2.172-8.051-3.339-2.458-1.467-4.828-3.086-7.178-4.724a15.578,15.578,0,0,1-3.394-4.052,40.18,40.18,0,0,0-3.108-3.4c.007.208.026.628.033.839a5.713,5.713,0,0,1,1.159,1.567,72.361,72.361,0,0,0,5.611,7.724c2.778,3.6,7.234,5.132,11.2,7.015a45.447,45.447,0,0,0,10.469,2.095c3.576.327,7.178.29,10.766.353,3.19-.423,6.339-1.136,9.511-1.66,2.117-.646,4.345-.836,6.465-1.474,4.917-1.419,9.774-3.053,14.717-4.393a47.132,47.132,0,0,0,1.214,8.723c.754,4.182,2.243,8.17,3.394,12.248.516,1.887,1.192,3.725,1.894,5.556a11.951,11.951,0,0,0,2.176,2.971,3.978,3.978,0,0,1,.171,3.365c-.587,1.437-2.065,2.269-2.618,3.725-.572,1.552-1.545,3.261-.65,4.9.494-.914.32-2.072,1.007-2.9a18.941,18.941,0,0,1,7.583-5.474c.576-.3,1.107.234,1.634.412.943.546,2.106.49,3.045,1.036a5.239,5.239,0,0,1,.628,2.908c-1.1,2.93-2.681,5.708-3.246,8.82a32.55,32.55,0,0,0-.39,3.758,2.514,2.514,0,0,1-3.153.669c-2.065-1.348-4.56-1.9-6.447-3.539-7.082-3.788-15.516-4.215-22.412-8.434-5.738-3.09-11.95-5.288-17.357-8.972-1.653-.992-3.417-1.779-5.125-2.663-2.525-1.24-5.641-1.757-7.387-4.167-3.572-3.985-7.672-7.5-10.881-11.809a35.885,35.885,0,0,0-8.846-8.957,25.386,25.386,0,0,0-5.8-2.429c-5.86-1.1-11.813-1.883-17.558-3.5-4.293-.616-8.6-1.222-12.834-2.18-2.017-.416-3.988-1.051-6.038-1.281a180.707,180.707,0,0,1,8.1-61.947M253.626,366.546c2.8,1.441,6.068,1.474,9.154,1.47,1.448-.074,2.221,1.493,2.462,2.707a6.775,6.775,0,0,1-3.606,2.644c-3.253,1.047-6.692.223-9.875-.661-1.972-.509-3.517-1.89-5.314-2.759a8.094,8.094,0,0,1-3.587-4.041,12.659,12.659,0,0,1,.015-8.612c.694-2.08.75-4.434,2.091-6.25.654-.94,1.842-1.181,2.822-1.638a5.537,5.537,0,0,1,4.783-.015c2.963,1.4,6.235,1.916,9.251,3.164,2.354.769,4.72,1.9,7.264,1.642,1.385-.06,2.633-.876,4.033-.8,1.861.527,4.029,1.144,4.742,3.183-1.166,2.5-3.491,4.1-5.34,6.046a25.611,25.611,0,0,1-4.75,2.952,36.226,36.226,0,0,1-14.179.271c.008.175.022.52.033.695M479.794,305.81c.067.91.093,1.827.1,2.744l-.338-.141A182.067,182.067,0,0,1,193.3,446.838a187.654,187.654,0,0,1-19.159-15.415c-2.6-2.6-5.463-4.932-7.836-7.75a182.035,182.035,0,0,1-41.485-68.761,185.622,185.622,0,0,1-9.032-47.319c2.96.55,5.879,1.289,8.824,1.9,4.185.7,8.386,1.322,12.6,1.82,3.944.189,7.654,1.612,11.486,2.4,2.6.694,5.366,1.025,7.605,2.633,5.511,3.012,8.928,8.43,12.912,13.068,2.046,2.41,4.066,4.854,6.28,7.115,1.04,1.062,1.727,2.488,3.049,3.253,1.864,1.1,4,1.627,5.908,2.633,1.444.784,2.989,1.378,4.367,2.28,5.173,3.572,11.145,5.693,16.708,8.549,2.028.992,3.922,2.314,6.131,2.889,5.329,1.894,10.937,2.945,16.169,5.125,1.2.509,2.132,1.5,3.365,1.976a40.134,40.134,0,0,1,10.253,5.362,12.793,12.793,0,0,0,5.162,4.13c2.585,1.924,5.771,2.648,8.876,3.249a15.916,15.916,0,0,0,7.683-.669c2.21-1.062,3.7-3.145,4.924-5.188.728-1.33,2.076-2.132,3-3.3,1.14-1.6,2.963-2.488,4.2-4.011,2.366-2.135,4.846-4.813,4.731-8.226a8.464,8.464,0,0,0,4.75-.126,13.783,13.783,0,0,0,6.365-6.265,7.867,7.867,0,0,0,4.044-2.975c1.11-1.537,1.218-3.5,1.263-5.329a104.784,104.784,0,0,0-.787-12.994c-.6-4.074-.6-8.2-.854-12.3-.36-4.189-.327-8.4-.42-12.6-.167-5.474.694-10.9.973-16.344.742-4.794.5-9.659.761-14.491.108-2.644.056-5.492-1.471-7.776-1.166-1.794-1.946-3.877-3.483-5.407a46.906,46.906,0,0,0-4.271-2.774c-3.524-2.206-7.687-2.949-11.757-3.376-6.057-1.032-12.2-1.315-18.316-1.838-7.791-.643-15.608-.843-23.414-1.188-9.659-.048-19.3-.687-28.951-.932-5.318-.319-10.647-.416-15.958-.869-5.979-.427-11.913-1.322-17.87-1.964-12.667-1.909-25.483-2.306-38.25-3.064-2.667-.045-5.311-.49-7.981-.412a182.133,182.133,0,0,1,281.058-90.832,191.858,191.858,0,0,1,15.92,13.1c2.588,2.6,5.459,4.928,7.832,7.747a180.736,180.736,0,0,1,29.453,40.679,193.819,193.819,0,0,1,12.619,29.694c-6.506.189-13.027.063-19.522.535-2.945.546-5.938.271-8.909.279a24.68,24.68,0,0,1-4.794-.453c-3.45-.754-7-.271-10.446.223-8.991.917-18.037.286-27.054.628-4.679.628-9.429.015-14.115.583-5.08.215-10.175-.1-15.245.364-4.185.067-8.337.672-12.5,1.058-7.349.55-14.7,1.166-22.011,2.132-4.868.795-9.93,1.01-14.487,3.086-4,2.065-8.586,3.409-11.62,6.941a19.386,19.386,0,0,0-2.915,5.247,31.469,31.469,0,0,0-1.2,10.068,24.566,24.566,0,0,0,.293,5.57,68.045,68.045,0,0,0,1.029,11.553c.687,2.911.371,5.927.438,8.89-.557,6.317-.735,12.667-1.7,18.947-.111,4.2-.293,8.408-.241,12.619a57.961,57.961,0,0,0,1.2,13.688c.375,1.415.4,3.183,1.712,4.118a31.079,31.079,0,0,0,2.93,1.924c4.523,1.155,9.2.134,13.766.821,3.03-.041,6.012-.691,9.035-.85,2.451-.353,4.995-.264,7.364-1.058a14.6,14.6,0,0,0,1.953,5.336c.865,1.69,2.611,2.6,3.907,3.907,1.177,1.452,1.886,3.223,3.019,4.716,1.419,2.046,3.561,3.387,5.418,4.995,2.017,1.229,4.018,2.733,6.443,2.993a20.392,20.392,0,0,0,11.408-3.558c1.382-.917,2.414-2.254,3.81-3.149a19.327,19.327,0,0,0,4.1-3.413c1.567-1.961,3.988-2.874,5.83-4.527a58.929,58.929,0,0,1,10.068-6.629c2.551-1.389,4.813-3.257,7.424-4.542,2.911-1.474,5.656-3.238,8.434-4.943,3.067-1.667,5.686-4,8.556-5.968,3.078-2.336,6.469-4.323,9.058-7.242,3.082-3.483,6.209-6.937,9.024-10.647a17.128,17.128,0,0,1,2.288-3.275A22.823,22.823,0,0,1,455.48,309.5c2.618-.245,5.251-.108,7.869-.364,1.946-.319,3.922-.371,5.886-.553,3.342-.152,6.681-.717,10.034-.368.646-.739.409-1.8.494-2.689-5.89-.212-11.746.583-17.6,1.159-3.027.46-6.109-.007-9.135.49-2.559.423-5.236.676-7.565,1.916a30.52,30.52,0,0,0-3.253,1.894c-1.2-.357-2.091.494-2.618,1.456a55.752,55.752,0,0,1-6.636,8.612,59.321,59.321,0,0,1-6.124,6.5c-2.12,1.593-4.3,3.112-6.417,4.705-2.369,1.586-4.456,3.569-6.967,4.939-2.8,1.589-5.37,3.584-8.278,4.991-3.394,1.623-6.3,4.059-9.655,5.752-4.111,2.146-7.7,5.1-11.386,7.869-2.759,1.367-4.241,4.252-6.874,5.793-2.061,1.207-3.476,3.246-5.608,4.345a18.736,18.736,0,0,1-4.868,1.875,9.224,9.224,0,0,1-4.326-2.484c-1.634-1.608-3.13-3.346-4.657-5.058-.791-.843-1.511-1.883-2.722-2.121-.289,1.255.784,2.135,1.471,3.027,2.221,2.514,4.226,5.34,7.119,7.138-1.8-.119-3.275-1.2-4.8-2.035a41.8,41.8,0,0,1-3.554-2.767c-2.239-1.552-3.264-4.174-4.7-6.376a15.8,15.8,0,0,1,1.838-9.927c.007-.23.022-.694.033-.928a4.867,4.867,0,0,0-2.685,3.079,17.192,17.192,0,0,0-.832,6.079,5.986,5.986,0,0,1-2.1-1.627c-.546-3.892,1.422-7.676,4.118-10.361,1-.383,2.046-.642,3.019-1.1a16.751,16.751,0,0,0,5.608-4.022,32.015,32.015,0,0,0,3.584-7.791,93.268,93.268,0,0,0,2.47-14.439c-.015-1.467.836-2.726,1.029-4.148a84.734,84.734,0,0,0,1.378-8.471c.282-3.387-.68-6.71-1.407-9.986-1.537,3.747-.223,8.062-1.939,11.787-.357.735-.862,1.578-1.731,1.734-.977-.267-1.218-1.4-1.6-2.2a40.114,40.114,0,0,0-6.109-10.684,78.129,78.129,0,0,0-6.358-7.022c-2.436-2.481-4.494-5.3-6.893-7.813-.472,1.434.743,2.525,1.229,3.762,1.783,4.215,5.726,6.844,8.445,10.387.178.631.271,1.552-.434,1.905-.765.75-1.8.186-2.692.089-2.54-.4-4.679-1.946-7.086-2.737a13.626,13.626,0,0,0,3.654,3.74c1.66,1.415,4.055.914,5.931,1.842a7.23,7.23,0,0,1,1.965,1.794,9.6,9.6,0,0,1-.8,4.519c-.245.654-.163,1.407-.561,2A18.637,18.637,0,0,1,347.043,312c-1.946,1.329-4.408,1.2-6.625,1.686a31.65,31.65,0,0,1-7.862.412,4.641,4.641,0,0,1-2.254-.434l-.052.037c-.564-.115-1.129-.234-1.686-.353.824,1.5,2.031,3.424,3.985,3.316,1.485.011,2.971-.03,4.46-.008a14.566,14.566,0,0,1,3.216-.037c1.025.68,2.08,1.846,1.768,3.179a24.285,24.285,0,0,1-2.005,4.048c-1.073,1.842-1.92,3.944-3.743,5.2-1.716,1.133-3.48,2.2-5.121,3.443a9.522,9.522,0,0,0-2.488,3.528c.613,0,1.029-.483,1.485-.821a24.967,24.967,0,0,1,6.046-3.227c2.667-1.322,4.345-3.888,5.66-6.451q1.053-1.994,2.054-4.011a2.952,2.952,0,0,1,4.508-.836c1.407.943,1.887,2.644,2.458,4.144a12.355,12.355,0,0,1,.869,4.5l.03.182c.616-2.585-.26-5.21-.045-7.825-.449-2.778-2.882-4.724-4.159-7.067,2.722-1.511,4.59-4.1,6.187-6.692.761-1.229,1.831-2.611,3.387-2.707a6.336,6.336,0,0,1,3.153,3.294c1.092,1.89,1.445,4.07,2.069,6.135.375,1.088-.015,2.221-.082,3.327-.279,2.225.178,4.516-.449,6.7-.564,2.065-.613,4.286-1.563,6.231a25.617,25.617,0,0,1-2.64,5.79,13.833,13.833,0,0,1-4.572,3.32,20.772,20.772,0,0,1-3.584,1.181,27,27,0,0,1-10.792,2.436c-2.915.245-5.775,1.04-8.712.98-3.81.008-7.62.015-11.43-.015-1.879-.056-4.174-.472-4.95-2.444-1.953-5.1-1.363-10.617-1.315-15.946.4-4.5,1.519-8.913,1.786-13.432.137-3.242,1.018-6.41,1-9.663-.1-3.606.564-7.212.044-10.81-.353-4.8-.252-9.629-.141-14.442a23.1,23.1,0,0,1,2.607-13.187,21.6,21.6,0,0,1,8.4-6.874c2.258-1.207,4.831-1.515,7.245-2.269a34.775,34.775,0,0,1,4.909-1.155c5.875-.813,11.642-2.251,17.521-3.053a10.559,10.559,0,0,0,1.872-.423,1.317,1.317,0,0,0-1.17-.754,14.394,14.394,0,0,0-3.706.182c-6.436,1.018-12.879,1.961-19.3,3.049a40.3,40.3,0,0,0-9.626,2.692,37.649,37.649,0,0,0-7.386,4.783,12.085,12.085,0,0,0-3.2,5.463c-.754,2.544-.613,5.236-1,7.847-.479,4.352.706,8.649.5,13-.111,3.465.431,6.915.308,10.38-.379,2.83,0,5.708-.49,8.534-.8,5.047-.936,10.183-1.979,15.2a52.209,52.209,0,0,0-.695,11.542,25.734,25.734,0,0,0,1.564,10.16c1.125,1.4,2.354,2.978,4.2,3.42a27.85,27.85,0,0,0,7.409.672c2.588.022,5.177.015,7.765-.007,3.246-.041,6.439-1.2,9.693-.65-.72.88-1.968,1.073-3.016,1.341-4.568.279-9.124,1.315-13.714.8-3.2-.442-6.469.026-9.659-.587-1.834,0-2.952-1.69-4.025-2.937-1.916-6.477-1.612-13.332-1.641-20.016.412-3.209-.03-6.462.553-9.652.605-3.925.661-7.9.969-11.858a86.647,86.647,0,0,0-1.1-22.575c-.39-3.506.349-6.989.241-10.495a30.836,30.836,0,0,1,.78-5.972,15.215,15.215,0,0,1,2.752-5.533c2.347-2.711,5.808-3.955,8.968-5.437,3.873-2.08,8.266-2.778,12.582-3.272,10.877-1.745,21.9-2.121,32.84-3.331,6-.535,12.025-.4,18.041-.5,4.059-.39,8.14-.286,12.214-.334,8.76-.951,17.588.033,26.367-.605,4.683.108,9.343-1.641,14-.475,2.718.691,5.533.3,8.3.62a11.367,11.367,0,0,0,2.963-.245c2.763-.914,5.715-.7,8.579-.824,4.895.071,9.789.052,14.676-.2a180.332,180.332,0,0,1,7.951,56.469,36.143,36.143,0,0,1-.2,5.032" transform="translate(-100.775 -100.644)"/>
      <path id="Path_3420" data-name="Path 3420" d="M1176.634,2505.131c-2.269-10.112-2.745-20.61-6.09-30.474a12.947,12.947,0,0,0,6.09-15.018,10.907,10.907,0,0,0-10.9-7.134c-.921.1-2.247-.824-2.767.364-.2,1.883-.033,3.788-.1,5.682-.011,20.447-1,40.887-.832,61.334-.089,1.248,1.957,1.43,2.243.286a36.24,36.24,0,0,0,.078-3.651c.022-13.536.438-27.072.654-40.608a16.1,16.1,0,0,0,3.4-.416c2.893,8.708,3.535,17.926,5.333,26.875,1,5.147,2.1,10.331,4.308,15.118a6.93,6.93,0,0,0,1.433,2.5,1.172,1.172,0,0,0,1.493-1.641,53.486,53.486,0,0,1-4.345-13.221m-11.572-31.451c.093-6.254.193-12.507.171-18.761,3.212-.26,6.837.839,8.519,3.777a10.542,10.542,0,0,1-1.641,11.832,9.882,9.882,0,0,1-7.048,3.153" transform="translate(-1028.246 -2169.948)"/>
      <path id="Path_3421" data-name="Path 3421" d="M2333.609,2473.634c-2.4-4.616-4.809-9.537-4.746-14.862-.007-1.411.368-3.056,1.75-3.74a6.092,6.092,0,0,1,6.848,1.054c2.176,1.972,2.892,5.047,2.844,7.884-.089.658.2,1.649,1.055,1.512.865.052,1.27-.821,1.251-1.56a12.328,12.328,0,0,0-2.818-8.771,9.066,9.066,0,0,0-8.991-2.789c-2.937.728-4.286,4-4.222,6.773.089,4.39,1.593,8.612,3.361,12.582,1.611,3.666,4.118,6.822,5.957,10.362a59.845,59.845,0,0,1,4.189,9.744c1.719,5.793,2.288,12.147.372,17.97a14.209,14.209,0,0,1-3.888,6.487,3.869,3.869,0,0,1-5.362-.2c-2.656-2.979-3.064-7.145-3.677-10.918.011-1.311-2.421-1.4-2.232.026a22.08,22.08,0,0,0,2.663,10.446,8.222,8.222,0,0,0,3.777,3.666,6.794,6.794,0,0,0,7.308-1.95c3.175-3.487,4.356-8.285,4.8-12.864.542-7.531-1.7-14.977-4.943-21.7-1.511-3.2-3.7-6-5.3-9.154" transform="translate(-2057.595 -2169.794)"/>
      <path id="Path_3422" data-name="Path 3422" d="M3072.474,2176.451c-1.556-1.4-3.628-1.968-5.47-2.87-.988-.379-2.068-.984-3.131-.68-.509,1.021.917,1.1,1.5,1.415,1.738.832,3.542,1.541,5.225,2.48.62.3,1.163,1.24,1.946.832a.8.8,0,0,0-.071-1.177" transform="translate(-2711.058 -1922.678)"/>
      <path id="Path_3423" data-name="Path 3423" d="M393.3,179.777a214.249,214.249,0,0,0-4.946-29.687c-.925-4.022-2.288-7.921-3.38-11.9a196.984,196.984,0,0,0-114.027-123.8,202.018,202.018,0,0,0-23.336-7.78c-5.047-1.493-10.235-2.421-15.389-3.446A186.977,186.977,0,0,0,204.646.052c-6.974-.045-13.96-.167-20.926.264-3.651.36-7.312.568-10.944,1.107a190.18,190.18,0,0,0-31.655,6.733,134.667,134.667,0,0,0-13.666,4.516A197.024,197.024,0,0,0,38.29,80.251a193.865,193.865,0,0,0-30.552,62.2,169.458,169.458,0,0,0-4.757,20.206A179.468,179.468,0,0,0,.5,182.008c-.709,7.539-.453,15.133-.446,22.7a191.341,191.341,0,0,0,4.456,34.15c1.081,6,3.012,11.8,4.7,17.647a194.131,194.131,0,0,0,24.105,50.1,197.074,197.074,0,0,0,101.9,77.422c4.694,1.463,9.414,2.86,14.156,4.156a231.108,231.108,0,0,0,25.2,4.572A182.5,182.5,0,0,0,200.6,393.93a170.472,170.472,0,0,0,26.044-2.161c8.478-1.482,16.982-3.023,25.19-5.667a192.331,192.331,0,0,0,41.815-17.435c2.852-1.73,5.726-3.428,8.6-5.125a210.024,210.024,0,0,0,17.751-12.723,196.522,196.522,0,0,0,64.944-94.935c.98-3.6,2.2-7.134,3.108-10.755a206.239,206.239,0,0,0,5.79-38.648,234.637,234.637,0,0,0-.538-26.7m-15.545,85.859a193.018,193.018,0,0,1-41.162,65.074c-2.321,2.722-5.039,5.054-7.6,7.535A193.34,193.34,0,0,1,49.376,72.092c3.03-3.669,6.335-7.082,9.559-10.573a196.577,196.577,0,0,1,41.44-32.034A193.349,193.349,0,0,1,377.753,265.635" transform="translate(0 -0.001)"/>
      <path id="Path_3424" data-name="Path 3424" d="M3021.391,1860.645c2.087.554,4.252.713,6.354,1.225a29.27,29.27,0,0,0,10.068.932c.914-.8-.352-1.667-1.192-1.415-4.832.271-9.41-1.482-14.167-1.916-.55.007-1.307-.275-1.679.264-.074.431.111.906.616.91" transform="translate(-2673.002 -1645.345)"/>
      <path id="Path_3425" data-name="Path 3425" d="M1373.721,2453.275a1.262,1.262,0,0,0,.52-2.124,4.019,4.019,0,0,0-1.667-.145c-4.835.208-9.626-1.077-14.461-.55a3.606,3.606,0,0,0-1.511.483,1.193,1.193,0,0,0,1.132,1.879,35.824,35.824,0,0,1,7.3.026c.338,11.364.3,22.739-.026,34.1-.36,9.948-.679,19.9-.694,29.85-2.076.052-4.148.1-6.224.1-.661-.011-1.578.03-1.664.876a1.144,1.144,0,0,0,1.3,1.47c4.954.034,9.912-.007,14.87.019a3.634,3.634,0,0,0,1.623-.238,1.208,1.208,0,0,0-.5-2.08c-2.306-.134-4.616.03-6.918-.081.279-21.253,1.3-42.507.59-63.763a32.845,32.845,0,0,0,6.332.178" transform="translate(-1200.218 -2168.241)"/>
      <path id="Path_3426" data-name="Path 3426" d="M2099.874,2459.356c-3.127-3.442-7.538-5.288-11.913-6.569-.787-.167-1.664-.817-2.44-.3a1.055,1.055,0,0,0-.416.921c-.134,22.156,1.058,44.3.914,66.452a1.177,1.177,0,0,0,1.218,1.3,16.7,16.7,0,0,0,9.41-4.928c4.545-4.445,6.959-10.551,8.567-16.589a62.821,62.821,0,0,0,1.277-25.847c-.936-5.255-2.77-10.584-6.618-14.439m2.366,42.124c-1.794,5.478-4.523,10.937-9.147,14.557a13.82,13.82,0,0,1-4.765,2.425c.078-21.138-.936-42.264-.891-63.4,4.742,1.274,9.376,3.732,12.336,7.754,2.979,3.881,4.208,8.779,4.753,13.562.773,8.4.379,17.042-2.287,25.1" transform="translate(-1845.053 -2169.977)"/>
      <path id="Path_3427" data-name="Path 3427" d="M1812.893,2455.8a1.2,1.2,0,0,0-2.2-.509,9.445,9.445,0,0,0-.858,3.836,116.2,116.2,0,0,0,.427,15.545,91.809,91.809,0,0,1-17.929-20.763c-.591-.761-1.225-1.79-2.3-1.827a1.291,1.291,0,0,0-1.088,1.482c-.048,3.97-.379,7.932-.275,11.906-.011,8.664.579,17.312.858,25.973a228.518,228.518,0,0,1-.631,28.261c-.159,1.177,1.526,1.407,2.124.616a7.055,7.055,0,0,0,.308-1.708c.992-10.64.743-21.346.375-32.008-.509-9.99-.847-20-.646-30,5.649,7.743,11.679,15.393,19.363,21.231a154.648,154.648,0,0,1-.208,17.7c-.2,5.2-.186,10.417-.045,15.624a57.105,57.105,0,0,0,.494,7.253c.123.676.368,1.7,1.277,1.582.9-.044,1.021-1.073.917-1.768-.769-11.018-.371-22.066.007-33.093.431-9.778-1.883-19.623.022-29.333" transform="translate(-1582.742 -2169.796)"/>
      <path id="Path_3428" data-name="Path 3428" d="M1603,2450.567c-4.3.694-8.668.46-13,.356a1.082,1.082,0,0,0-1.292.928q.017,10.2-.234,20.4a11.717,11.717,0,0,0-.056,3.383c-.23,13.745-.687,27.489-.643,41.236a2.468,2.468,0,0,0,2.637,2.321,38.574,38.574,0,0,0,9.893-.528c.91-.241,2.195-.627,2.109-1.812-.063-1.04-1.3-1.136-2.031-.743-3.327,1.129-6.9.739-10.346.668.022-13.9.472-27.8.769-41.7a39.037,39.037,0,0,0,7.713-1.006c1.144-.271.691-2.125-.394-2.069-2.432.312-4.883.472-7.327.695.141-6.473.186-12.946.2-19.415a70.076,70.076,0,0,0,11.03-.2c.81-.2,2.057-.208,2.228-1.247a1.1,1.1,0,0,0-1.255-1.259" transform="translate(-1404.984 -2168.433)"/>
      <path id="Path_3429" data-name="Path 3429" d="M209.563,31.356A193.347,193.347,0,0,1,363.9,357.962c-2.321,2.722-5.039,5.054-7.6,7.535A193.34,193.34,0,0,1,76.686,99.345c3.03-3.669,6.335-7.082,9.559-10.573a196.579,196.579,0,0,1,41.44-32.034,194.134,194.134,0,0,1,81.878-25.383m4.059,9.269a193.032,193.032,0,0,0-28.06,3.773c-4.493.921-8.887,2.25-13.31,3.446-5.823,1.552-11.416,3.807-17.053,5.912a179.172,179.172,0,0,0-18.884,9.024c-4.085,1.953-7.787,4.594-11.716,6.837-3.569,2.492-7.26,4.809-10.666,7.531A175.847,175.847,0,0,0,93.327,95.1a187.954,187.954,0,0,0-24.176,30.273c-1.768,3.082-3.751,6.031-5.466,9.143-1.229,2.432-2.577,4.8-3.829,7.227-2.265,4.75-4.46,9.54-6.477,14.4-1.393,3.985-3.056,7.88-4.245,11.932-1.344,4.308-2.522,8.668-3.662,13.031-1.11,4.007-1.634,8.133-2.5,12.188a172.62,172.62,0,0,0-2.514,27.514,183.671,183.671,0,0,0,1.136,24.915c.657,4.051,1.01,8.155,1.935,12.158a128.92,128.92,0,0,0,3.922,16.7A153.426,153.426,0,0,0,53.067,291.4,183.935,183.935,0,0,0,156.239,395.1c3.781,1.4,7.524,2.885,11.353,4.148,7.528,2.161,15.04,4.512,22.8,5.7,4.419,1.017,8.95,1.415,13.428,2.08a199.5,199.5,0,0,0,29.679.917,197.14,197.14,0,0,0,30.43-4.074c2.885-.579,5.7-1.456,8.552-2.176a139.86,139.86,0,0,0,14.624-4.638,184.392,184.392,0,0,0,29.449-13.7c3.491-2.225,7.149-4.182,10.5-6.618A183.711,183.711,0,0,0,392.764,298a167.268,167.268,0,0,0,8.564-24.105c1.207-4.17,2.306-8.37,3.153-12.63.587-3.829,1.508-7.6,1.909-11.457a169.5,169.5,0,0,0,1.73-29.037,182.882,182.882,0,0,0-4.56-37.864,199.893,199.893,0,0,0-7.175-23.544,181.4,181.4,0,0,0-10.9-23.674c-1.842-3.65-4.193-7.011-6.213-10.558a186.481,186.481,0,0,0-56.091-55.994c-2.343-1.37-4.646-2.807-6.959-4.226-1.868-1.177-3.922-2.013-5.812-3.149a189.512,189.512,0,0,0-29.431-12.541c-7.36-2.109-14.706-4.427-22.289-5.6a181.079,181.079,0,0,0-45.072-2.989" transform="translate(-27.31 -27.254)" fill="#fff"/>
      <path id="Path_3430" data-name="Path 3430" d="M239.169,144.735a181.986,181.986,0,0,1,180.909,19.909,191.871,191.871,0,0,1,15.92,13.1c2.588,2.6,5.459,4.928,7.832,7.747a180.732,180.732,0,0,1,29.453,40.679A193.8,193.8,0,0,1,485.9,255.862c-6.506.189-13.027.063-19.523.535-2.945.546-5.938.271-8.909.279a24.669,24.669,0,0,1-4.794-.453c-3.45-.754-7-.271-10.446.223-8.991.917-18.037.286-27.054.628-4.679.628-9.429.015-14.115.583-5.08.215-10.175-.1-15.244.364-4.185.067-8.337.672-12.5,1.058-7.349.55-14.7,1.166-22.011,2.132-4.869.795-9.93,1.01-14.487,3.086-4,2.065-8.586,3.409-11.62,6.941a19.386,19.386,0,0,0-2.915,5.247,31.474,31.474,0,0,0-1.2,10.068,24.56,24.56,0,0,0,.293,5.57,68.029,68.029,0,0,0,1.029,11.553c.687,2.911.371,5.927.438,8.89-.557,6.317-.735,12.667-1.7,18.947-.111,4.2-.293,8.408-.241,12.619a57.971,57.971,0,0,0,1.2,13.689c.375,1.415.4,3.183,1.712,4.118a31.1,31.1,0,0,0,2.93,1.924c4.523,1.155,9.2.134,13.766.821,3.03-.041,6.012-.691,9.035-.85,2.451-.353,4.995-.264,7.364-1.058a14.6,14.6,0,0,0,1.953,5.336c.865,1.69,2.611,2.6,3.907,3.907,1.177,1.452,1.886,3.223,3.019,4.716,1.419,2.046,3.561,3.387,5.418,4.995,2.016,1.229,4.018,2.733,6.443,2.993a20.391,20.391,0,0,0,11.408-3.558c1.381-.917,2.414-2.254,3.81-3.149a19.331,19.331,0,0,0,4.1-3.413c1.567-1.961,3.988-2.874,5.83-4.527a58.924,58.924,0,0,1,10.068-6.629c2.551-1.389,4.813-3.257,7.423-4.542,2.912-1.474,5.656-3.238,8.434-4.943,3.067-1.667,5.686-4,8.556-5.968,3.079-2.336,6.469-4.323,9.057-7.242,3.082-3.483,6.209-6.937,9.024-10.647a17.134,17.134,0,0,1,2.288-3.276,22.823,22.823,0,0,1,12.459-3.413c2.618-.245,5.251-.108,7.869-.364,1.946-.319,3.922-.371,5.886-.553,3.342-.152,6.681-.717,10.034-.368.646-.739.408-1.8.494-2.689l.03.282c.067.91.093,1.827.1,2.744l-.338-.141A182.067,182.067,0,0,1,207.923,460.754a187.656,187.656,0,0,1-19.159-15.415c-2.6-2.6-5.463-4.932-7.836-7.75a182.042,182.042,0,0,1-41.485-68.762,185.622,185.622,0,0,1-9.031-47.319c2.96.55,5.879,1.289,8.824,1.9,4.185.7,8.385,1.322,12.6,1.82,3.944.189,7.654,1.612,11.486,2.4,2.6.694,5.366,1.025,7.605,2.633,5.511,3.012,8.928,8.43,12.912,13.068,2.046,2.41,4.066,4.854,6.28,7.115,1.04,1.062,1.727,2.488,3.049,3.253,1.864,1.1,4,1.627,5.908,2.633,1.445.783,2.99,1.378,4.367,2.28,5.173,3.573,11.145,5.693,16.708,8.549,2.028.992,3.922,2.314,6.131,2.889,5.329,1.894,10.937,2.945,16.169,5.125,1.2.509,2.132,1.5,3.365,1.976a40.126,40.126,0,0,1,10.253,5.362,12.793,12.793,0,0,0,5.162,4.13c2.585,1.924,5.771,2.648,8.876,3.249a15.914,15.914,0,0,0,7.684-.668c2.21-1.062,3.7-3.146,4.924-5.188.728-1.329,2.076-2.132,3-3.3,1.14-1.6,2.963-2.488,4.2-4.011,2.366-2.135,4.846-4.813,4.731-8.226a8.463,8.463,0,0,0,4.75-.126,13.783,13.783,0,0,0,6.365-6.265,7.866,7.866,0,0,0,4.044-2.975c1.11-1.537,1.218-3.5,1.263-5.329a104.813,104.813,0,0,0-.787-12.994c-.6-4.074-.6-8.2-.854-12.3-.36-4.189-.327-8.4-.42-12.6-.167-5.474.694-10.9.973-16.344.743-4.794.5-9.659.761-14.491.108-2.644.056-5.493-1.471-7.776-1.166-1.794-1.946-3.877-3.483-5.407a46.918,46.918,0,0,0-4.271-2.774c-3.524-2.206-7.687-2.949-11.757-3.376-6.057-1.032-12.2-1.315-18.316-1.838-7.791-.642-15.608-.843-23.414-1.188-9.659-.048-19.3-.687-28.951-.932-5.318-.319-10.647-.416-15.957-.869-5.979-.427-11.913-1.322-17.87-1.965-12.667-1.909-25.483-2.306-38.25-3.064-2.666-.045-5.31-.49-7.981-.412a182.5,182.5,0,0,1,100.149-110.74m149.782,10.84c-1.857,4.427-4.122,8.675-5.927,13.124-2.225,5.838-4.014,11.88-7.052,17.369-.609.669-.052,2.031.925,1.489,4.382-7.193,6.087-15.568,9.752-23.091a50.222,50.222,0,0,0,3.331-8.259c.111-.55-.735-1.511-1.029-.631m-150.87,2.091a5.238,5.238,0,0,0,.438,2.4c1.656,5.76,3.45,11.483,4.794,17.328.59,2.377,1.032,4.8,1.716,7.149.152.813,1.381.728,1.593-.019.583-.843-.412-1.5-.553-2.3-1.289-5.8-2.733-11.564-4.486-17.242-.732-2.291-1.27-4.653-2.184-6.881a.791.791,0,0,0-1.318-.438M408.9,163.329c-2.243,3.327-4.876,6.443-6.562,10.112-.227.594-.776,1.749.2,1.961.891.126.917-1.014,1.252-1.567,1.6-3.316,3.955-6.194,6.053-9.2.713-.616-.182-2.12-.947-1.307m-185.314,6.239c-.23.921.36,1.723.743,2.507.732,1.322,1.207,2.759,1.883,4.1.122.639,1.27,1.159,1.266.152a39.229,39.229,0,0,0-2.774-6.384.675.675,0,0,0-1.118-.379m-15.3,9.228c0,.2-.011.609-.015.81a39.025,39.025,0,0,0,3.977,6.473c4.546,6.1,9.589,11.85,13.473,18.42,1.459,2.206,2.663,4.623,4.49,6.555a.769.769,0,0,0,.368-1.374c-2.18-3.19-3.918-6.666-6.1-9.86-4.412-6.759-10.086-12.6-14.335-19.467-.483-.587-.928-1.994-1.861-1.556m222.164.071a10.042,10.042,0,0,0-1.979,2.607c-.836,1.664-2.447,2.726-3.476,4.248a59.152,59.152,0,0,1-3.777,5.117c-3.379,3.84-6.38,7.992-9.626,11.939-.382.724-1.567,1.563-.9,2.414,1.122.137,1.578-1.14,2.247-1.8,3.112-3.6,5.845-7.505,9.009-11.063a53.918,53.918,0,0,0,4.118-5.485c1.121-1.708,2.975-2.83,3.881-4.7.46-.954,1.333-1.63,1.812-2.574a.79.79,0,0,0-1.307-.706m-33.074,3.766a3.085,3.085,0,0,0-1.084,1.144c-1.883,2.778-3.472,5.737-5.1,8.671a152.139,152.139,0,0,1-10.825,18.163c-.4.442-.791,1.593.223,1.5a12.967,12.967,0,0,0,2.288-2.807c2.648-3.747,4.95-7.721,7.215-11.709a140.981,140.981,0,0,1,7.364-12.987c.338-.706,1.37-.869,1.508-1.66-.056-.828-1.122-.52-1.593-.319m-165.62,6.3-.171.3c1.879,6.915,5.778,13,8.916,19.374,1.062,2.035,1.939,4.17,3.116,6.142l.379.13c.4-1.181-.62-2.373-.973-3.5-3.067-7.487-7.988-14.194-10.012-22.1-.1-.52-.958-.991-1.255-.357m-36.412.29a6.019,6.019,0,0,0,1.467,3.736c.49.527,1.006,1.463,1.872,1.17.2-1.3-1.363-2.113-1.667-3.342-.349-.676-.59-2.288-1.671-1.563M249,195.4c.03-.973-.594-1.827-.784-2.759-1.957.074-.75,3.788.784,2.759m124.176-.253a13.632,13.632,0,0,0-1.029,2.975.7.7,0,0,0,1.289.319,6.525,6.525,0,0,0,.843-2.492.7.7,0,0,0-1.1-.8m66.582,3.506c-1.69,1.9-3.7,3.476-5.511,5.247a2.669,2.669,0,0,0-.914,1.675,2.02,2.02,0,0,0,1.489-.39,48.09,48.09,0,0,0,6.053-5.411c.988-1.133,2.466-1.645,3.5-2.718-.033-.182-.1-.553-.137-.739-1.753-.156-3.264,1.207-4.482,2.336m-235,1.89c-.453.791.535,1.255,1.062,1.6,2.046,1.136,3.257,3.209,4.635,5.013,2.674,3.5,5.478,6.892,8.229,10.324.776.921,1.185,2.2,2.258,2.834.706.063.78-.888.475-1.315a38.791,38.791,0,0,0-4.3-5.86c-2.243-2.845-4.572-5.626-6.677-8.575a13.141,13.141,0,0,0-4.2-3.977c-.394-.3-1.177-.646-1.478-.048m-27.488,1.887a.533.533,0,0,0-.427.81c2.51,2.659,5.671,4.6,8.088,7.36.821.349,1.211-.642.628-1.151-1.86-2.5-4.675-4.018-6.792-6.265-.423-.371-.847-1.006-1.5-.754m249.823,6.54c-1.623.992-2.507,2.73-3.777,4.081-4.234,5.01-9.217,9.314-13.915,13.859-.052.163-.152.486-.2.65.88.631,1.738-.475,2.444-.928,5.333-4.82,10.7-9.693,15.059-15.438a22.615,22.615,0,0,1,2.08-1.608c.312-.992-1.162-1.14-1.69-.617M405.7,210.659c-4.98,7.624-12.422,13.105-18.293,19.972a1.8,1.8,0,0,0-.587,1.645,14.2,14.2,0,0,0,2.536-2.28c5.931-6.016,12.56-11.46,17.372-18.479.535-.68-.535-1.723-1.029-.858m-215.487,2.908c-.583.256-.3,1.181.29,1.237,3.844,1.924,6.361,5.6,9.618,8.3,2.206,2.024,4.9,3.469,6.915,5.712.665.661,1.174,1.545,2.035,1.976.6.145.709-.449.55-.891-1.935-2.882-4.876-4.813-7.572-6.907-2.989-2.317-5.292-5.381-8.307-7.672-1-.795-2.184-1.953-3.528-1.749m45.21,3.168c-.483.494.078,1.073.323,1.523,2.978,4.523,6.261,8.835,9.6,13.094.494.516.7,1.779,1.619,1.515.661-.839-.193-1.838-.68-2.525-3.238-3.97-6.217-8.14-9.247-12.266-.464-.52-.839-1.277-1.615-1.341m138.7,2.815a24.511,24.511,0,0,0-1.883,2.536,1.512,1.512,0,0,0-.249,1.719c1.125.2,1.4-1.166,2.031-1.809.46-.832,1.574-1.645,1.036-2.681l-.936.234m87.9,1.768c-1.708.639-3.487,1.125-5.129,1.924a.619.619,0,0,0,.23,1.2,20.967,20.967,0,0,0,4.286-1.259c.65-.316,1.6-.449,1.864-1.229.145-.739-.769-.847-1.251-.635m-233.97,4.419c-.81.709-.256,2.663,1.051,1.976,3.654,4.174,7.022,8.6,10.866,12.615,2.7,2.893,5.277,5.908,8.148,8.638a18.9,18.9,0,0,0,2.536,2.548l.442-.145V250.9c-1.17-2.106-3.06-3.669-4.664-5.433-2.522-2.789-5.065-5.563-7.6-8.341-3.015-3.324-5.741-6.9-8.708-10.261-.557-.55-1.159-1.456-2.068-1.133m216.638.928a27.665,27.665,0,0,0-5.154,2.187c-3.324,1.664-6.205,4.055-9.5,5.771-.784.252-1.255,1.571-.03,1.43,2.34-.583,4.326-2.039,6.347-3.294,1.749-1.148,3.606-2.113,5.444-3.1,1.411-.739,3.123-.858,4.378-1.89.628-1.01-.691-1.7-1.485-1.1m-40.382,4.486c-1.76,1.341-2.956,3.264-4.427,4.891-4.2,5.3-10.35,8.426-15.4,12.782-.966.876-2.187,1.649-2.562,2.978,1.114.2,1.8-.8,2.622-1.363,4.523-3.7,9.626-6.662,13.911-10.654,2.741-2.544,4.568-5.979,7.639-8.17.338-1.27-1.188-.977-1.783-.464m-235.615.223a.75.75,0,0,0,.085,1.114,24.581,24.581,0,0,0,2.822.876,42.681,42.681,0,0,1,5.492,2.373c2.421,1.14,4.932,2.109,7.238,3.48.646.349,1.307.891,2.091.62.49-.524-.212-1.058-.59-1.352a54.078,54.078,0,0,0-7.654-3.855,44.027,44.027,0,0,0-6.618-2.8c-.936-.208-1.9-.732-2.867-.457m45.9,3.6c1.3.813,2.741,1.389,3.977,2.313,5.359,3.821,10.614,7.784,15.932,11.661,3.09,2.269,6.51,4.026,9.663,6.2a3.085,3.085,0,0,0,1.712.68c-.056-.182-.163-.542-.219-.724a47.8,47.8,0,0,0-5.125-3.394c-5.247-3.023-9.845-7-14.773-10.487-3.119-2.18-6.049-4.638-9.351-6.547a4.916,4.916,0,0,1-1.456-1.326.884.884,0,0,0-.36,1.623m167.362,2.042c-2.536,3.29-5.255,6.454-7.561,9.919-.984,1.519-2.388,2.722-3.268,4.308.1.895.958.464,1.259-.019a46.866,46.866,0,0,0,3.413-4.018c2.15-3,4.5-5.853,6.807-8.738a11.069,11.069,0,0,1,1.786-2.076c-.108-.186-.316-.557-.42-.746-1.051-.59-1.489.739-2.016,1.37m32.869,3.9a106.607,106.607,0,0,0-14.361,6.84c-1.886,1.129-3.843,2.124-5.808,3.1a.672.672,0,1,0,.438,1.263c3.959-1.359,7.42-3.81,11.193-5.582,4.048-1.987,8.345-3.428,12.318-5.574.446-.256,1.044-.564.984-1.185.015-.761-.839-1.006-1.448-.977-.635,1.281-2.169,1.493-3.316,2.113m58.052-.553a11.185,11.185,0,0,0-2.64.683c-.546.219-.52,1.337.253,1.185a31.167,31.167,0,0,0,5.188-.951q.964-.29.49-1.218c-1.092-.375-2.21.145-3.29.3m-276.416,3.123a130.384,130.384,0,0,0,20.737,7.427,128.694,128.694,0,0,1,14.736,4.6c1.151.36,2.31,1.816,3.521.992-2.73-2.447-6.328-3.368-9.711-4.527-3.621-1.166-7.331-2.039-10.977-3.127a137.628,137.628,0,0,1-17.617-6.555c-.761-.527-1.59.9-.687,1.192m254.391,1.526c-5.229,1.081-10.536,1.79-15.686,3.223a56.191,56.191,0,0,1-7.011,1.861,1.283,1.283,0,0,0-1.192.791c1.348.483,2.785.03,4.141-.2,3.394-.891,6.781-1.82,10.231-2.473,5.778-1.01,11.52-2.232,17.306-3.194,1.422-.334,2.99-.293,4.248-1.125-.182-.553-.561-1.289-1.266-.958-3.539.947-7.193,1.326-10.769,2.08m-294.357-.189c.145,1.01,1.125,1.389,1.994,1.563,8.081,1.69,16.318,2.525,24.384,4.278q5.236,1.381,10.576,2.306c.687.178,1.441-.787.743-1.237-2.369-.509-4.765-.906-7.119-1.485-9.336-2.633-19.073-3.287-28.539-5.3a4.262,4.262,0,0,0-2.039-.123m264.785,6.688a9.329,9.329,0,0,0-2.592,1.129c-.316.8.75.88,1.274.7.891-.271,2.024-.438,2.522-1.326.019-.65-.776-.7-1.2-.505m-219.843,2.31c.275,1.489,2.013,1.341,3.142,1.582,4.475.438,8.905,1.233,13.362,1.764.212-.746-.446-1.222-1.1-1.318-4.39-1.029-8.909-1.292-13.358-1.95a8.382,8.382,0,0,0-2.046-.078m261.74,75.127c-.074.431.111.906.616.91,2.087.553,4.252.713,6.354,1.225a29.281,29.281,0,0,0,10.068.932c.914-.8-.353-1.667-1.192-1.415-4.831.271-9.41-1.482-14.167-1.916-.55.007-1.307-.275-1.678.264m23.8,1.953c-1.04,1.151.969,1.281,1.712,1.4a.73.73,0,0,0,.795-1.2,2.477,2.477,0,0,0-2.507-.2m-347.15,6.417a.741.741,0,0,0,.145,1.3,29.593,29.593,0,0,0,3.974-.293c.661-.208.4-1.211-.252-1.214a8.887,8.887,0,0,0-3.866.208m8.839-.071c-.134.49.011.969.6,1,2.381.9,4.928.668,7.405.5,4.156-.357,8.367.386,12.481-.468.516-.145,1.515-.59,1.044-1.266-5.593.854-11.26-.126-16.871.527-1.571.3-3.22-1.088-4.661-.293m303.009,5.218c-.089.126-.264.386-.353.512.345,1.032,1.6,1.006,2.455,1.37a100.61,100.61,0,0,1,11.976,4.471c.932.368,1.868,1,2.923.813a.986.986,0,0,0,.215-1.586c-2.161-.193-3.959-1.541-5.968-2.236-2.982-1.058-5.975-2.076-8.991-3.03a4.241,4.241,0,0,0-2.258-.316m-9.013,8.727c-.535.468.1,1.047.516,1.292,5.548,3.45,11.081,7.041,17.268,9.269.806.2,1.675.91,2.492.4.594-.55.041-1.367-.639-1.426-6.254-1.965-11.824-5.492-17.383-8.872-.7-.267-1.519-1.144-2.254-.665m31.64,1.092c-.509.442.123,1.047.546,1.226,2.3.988,4.906.951,7.175,2.046.806.26,1.589,1.01,2.481.665a.856.856,0,0,0-.267-1.389c-2.926-1.771-6.417-2.009-9.667-2.785l-.267.238m-293.413.847c-3.7,1.563-7.383,3.157-10.963,4.976-3.372,1.79-7.1,2.718-10.614,4.167-1.994.873-4.234,1.066-6.183,2.028-.085.16-.253.479-.338.639.3,1.2,1.645.394,2.406.215,3.2-.765,6.22-2.083,9.325-3.149,5.021-1.623,9.6-4.3,14.45-6.347a15.727,15.727,0,0,0,3.008-1.564c.576-.7-.5-1.385-1.092-.966m242.555,8.549a.613.613,0,0,0,.29.88c6.224,3.762,12.946,6.607,19.307,10.116.824.357,1.66,1.374,2.614.862.03-.212.1-.635.126-.847a40,40,0,0,0-6.016-3.387c-4.267-2.184-8.645-4.144-12.816-6.506-1.07-.494-2.065-1.411-3.29-1.374l-.215.256m44.779,3.1c-.509,1.021.917,1.1,1.5,1.415,1.738.832,3.543,1.541,5.225,2.481.62.3,1.162,1.24,1.946.832a.8.8,0,0,0-.07-1.177c-1.556-1.4-3.628-1.968-5.47-2.871-.988-.379-2.068-.984-3.131-.68m-271.648,1.764c-3.342,2.146-6.815,4.07-10.2,6.15a83.854,83.854,0,0,1-9.67,4.791,3.624,3.624,0,0,0-1.214.795c-.264.657.212,1.032.78,1.233,3.361-1.827,7.011-3.1,10.276-5.117,3.558-2.161,7.2-4.193,10.684-6.469a6.6,6.6,0,0,0,2.626-2.284c-1.2-.561-2.284.357-3.283.9m-49.454.7c-.85.4-2.046.475-2.518,1.393.145,1.114,1.437.4,2.061.208.631-.353,1.812-.42,1.831-1.322-.007-.8-.94-.449-1.374-.278m263.894,1.712c0,.2-.011.6-.015.8a12.873,12.873,0,0,0,3.194,2.046,122.064,122.064,0,0,1,10.8,7c4.887,3.483,10.428,5.886,15.426,9.195,1.374.966,3,1.589,4.163,2.841a15.726,15.726,0,0,0,2.544,2.273c.6.561,1.63-.472,1.062-1.073-.23-.512-.8-.7-1.2-1.021-1.055-.8-1.8-1.961-2.967-2.607-1.8-1.017-3.5-2.18-5.266-3.242-3.275-1.972-6.7-3.684-9.971-5.656-3.387-2.135-6.6-4.534-9.971-6.7-2.254-1.486-4.705-2.622-7.015-4.007l-.776.149M458,379.128c-.6.557-.015,1.162.486,1.512,3.632,2.195,7.877,3.071,11.605,5.069.78.256,1.062,1.808,2.017,1.277.821-.828-.186-1.9-.9-2.377-2.863-1.8-6.231-2.514-9.28-3.922-1.355-.412-2.536-1.333-3.933-1.56m-236.926.795a58.4,58.4,0,0,0-6.276,4.482c-7.078,5.351-15.1,9.225-22.724,13.711-.713.453-2.035.616-1.894,1.731a.782.782,0,0,0,1.259.553c7.026-4.442,14.617-7.94,21.439-12.712,3.038-2.013,5.767-4.445,8.786-6.484.286-.286.906-.52.724-1.021.082-.691-.958-.557-1.315-.26m-53.525,1.448c-3.227,2.154-6.97,3.316-10.346,5.2-.943.568-2.856.992-2.611,2.373.156.067.468.2.62.264a21.108,21.108,0,0,1,3.981-2.1c3.086-1.675,6.551-2.648,9.362-4.817.683-.642-.434-1.3-1.006-.925m231.166.1c-.505.613.215,1.118.654,1.434,4.044,2.834,7.438,6.462,11.327,9.5,3.413,2.871,7.379,4.995,10.814,7.839.639.483,1.055-.312,1.307-.776-2.195-2.3-5.062-3.784-7.617-5.63-5.047-3.405-9.243-7.873-14.108-11.5-.72-.4-1.5-1.344-2.377-.858m-170.6,15.49c-.438,1.775-.2,3.658-.345,5.481-.743,19.679.55,39.35.531,59.032-.353,1.474,2.213,1.812,2.3.379.033-13.893-.561-27.782-.706-41.678,2.845.613,5.778.308,8.653.175,1.092-.152.984-1.9-.089-2.005-2.815-.654-5.771.134-8.571-.635-.019-6.105.041-12.21.249-18.312,4.137.07,8.267-.286,12.4-.4,1.058.156,1.471-1.292.847-1.968-.416-.49-1.1-.312-1.645-.327-3.58.189-7.16.42-10.744.36-.962,0-1.987-.724-2.882-.1m22.014.524c-.2,1.883-.033,3.788-.1,5.682-.011,20.447-1,40.887-.832,61.334-.089,1.248,1.957,1.43,2.243.286a36.252,36.252,0,0,0,.078-3.651c.022-13.536.438-27.072.654-40.608a16.108,16.108,0,0,0,3.4-.416c2.893,8.708,3.535,17.926,5.333,26.876,1,5.147,2.1,10.331,4.308,15.118a6.929,6.929,0,0,0,1.433,2.5,1.172,1.172,0,0,0,1.493-1.641,53.49,53.49,0,0,1-4.345-13.22c-2.269-10.112-2.744-20.611-6.09-30.474a12.946,12.946,0,0,0,6.09-15.018,10.907,10.907,0,0,0-10.9-7.134c-.921.1-2.247-.824-2.767.364m21.658-.223a1.193,1.193,0,0,0,1.133,1.879,35.83,35.83,0,0,1,7.3.026c.338,11.364.3,22.738-.026,34.1-.36,9.949-.68,19.9-.694,29.85-2.076.052-4.148.1-6.224.1-.661-.011-1.578.03-1.664.876a1.144,1.144,0,0,0,1.3,1.471c4.954.033,9.912-.007,14.869.019a3.64,3.64,0,0,0,1.623-.238,1.208,1.208,0,0,0-.5-2.08c-2.306-.134-4.616.03-6.919-.082.279-21.253,1.3-42.506.59-63.763a32.823,32.823,0,0,0,6.332.178,1.262,1.262,0,0,0,.52-2.124,4.015,4.015,0,0,0-1.667-.145c-4.835.208-9.626-1.077-14.461-.55a3.6,3.6,0,0,0-1.511.483m28.632-.208a1.083,1.083,0,0,0-1.292.928q.017,10.2-.234,20.4a11.739,11.739,0,0,0-.056,3.383c-.23,13.744-.687,27.488-.642,41.236a2.468,2.468,0,0,0,2.637,2.321,38.558,38.558,0,0,0,9.893-.527c.91-.241,2.195-.628,2.109-1.812-.063-1.04-1.3-1.136-2.031-.743-3.327,1.129-6.9.739-10.346.669.022-13.9.472-27.8.769-41.7a39.014,39.014,0,0,0,7.713-1.006c1.144-.271.691-2.124-.394-2.069-2.432.312-4.883.472-7.327.695.141-6.473.186-12.946.2-19.415a70.1,70.1,0,0,0,11.03-.2c.81-.2,2.057-.208,2.228-1.248a1.1,1.1,0,0,0-1.255-1.259c-4.3.694-8.668.46-13,.357m21.194,1.281c-.048,3.97-.379,7.932-.275,11.906-.011,8.664.579,17.313.858,25.973a228.531,228.531,0,0,1-.631,28.261c-.16,1.177,1.526,1.408,2.124.616a7.057,7.057,0,0,0,.308-1.708c.992-10.639.743-21.346.375-32.008-.509-9.99-.847-20-.646-30,5.648,7.743,11.679,15.393,19.363,21.231a154.676,154.676,0,0,1-.208,17.7c-.2,5.2-.186,10.417-.045,15.623a57.042,57.042,0,0,0,.494,7.253c.123.676.368,1.7,1.277,1.582.895-.045,1.021-1.073.917-1.768-.769-11.018-.371-22.066.007-33.092.431-9.778-1.883-19.623.022-29.334a1.2,1.2,0,0,0-2.2-.509,9.443,9.443,0,0,0-.858,3.836,116.229,116.229,0,0,0,.427,15.545,91.8,91.8,0,0,1-17.929-20.763c-.59-.761-1.225-1.79-2.295-1.827a1.291,1.291,0,0,0-1.088,1.482m34.258-1.263a1.055,1.055,0,0,0-.416.921c-.134,22.156,1.058,44.3.913,66.452a1.178,1.178,0,0,0,1.218,1.3,16.7,16.7,0,0,0,9.41-4.928c4.545-4.445,6.959-10.55,8.567-16.589a62.827,62.827,0,0,0,1.278-25.847c-.936-5.255-2.77-10.584-6.618-14.439-3.127-3.443-7.539-5.288-11.913-6.569-.787-.167-1.664-.817-2.44-.3m32.739.059c-2.937.728-4.286,4-4.222,6.774.089,4.389,1.593,8.612,3.361,12.582,1.612,3.665,4.118,6.822,5.957,10.361a59.921,59.921,0,0,1,4.189,9.745c1.72,5.793,2.288,12.147.371,17.97a14.216,14.216,0,0,1-3.888,6.488,3.87,3.87,0,0,1-5.362-.2c-2.655-2.978-3.064-7.145-3.676-10.918.011-1.311-2.421-1.4-2.232.026a22.078,22.078,0,0,0,2.663,10.446,8.221,8.221,0,0,0,3.777,3.665,6.8,6.8,0,0,0,7.308-1.95c3.175-3.487,4.356-8.285,4.8-12.864.542-7.531-1.7-14.977-4.943-21.7-1.511-3.2-3.7-6-5.3-9.154-2.4-4.616-4.809-9.537-4.746-14.862-.007-1.411.368-3.056,1.749-3.74a6.092,6.092,0,0,1,6.848,1.055c2.176,1.972,2.893,5.047,2.845,7.884-.089.657.2,1.649,1.055,1.511.865.052,1.27-.821,1.252-1.56a12.328,12.328,0,0,0-2.819-8.772,9.066,9.066,0,0,0-8.991-2.789m64.287.646a7.6,7.6,0,0,0,1.979,1.352c1.89,1.025,3.736,2.132,5.648,3.123.624-.278.888-1.214.16-1.53-2.429-1.355-4.869-2.693-7.293-4.048-.743-.4-.884.732-.494,1.1m-45.358,4.783c-.271.735.059,2.243,1.1,1.946.587-.661-.1-2.317-1.1-1.946M183.584,403a59.948,59.948,0,0,1-5.481,3.766c-3.216,1.775-6.31,3.814-9.748,5.14-.754.438-1.972,1.192-1.5,2.221.754.55,1.344-.356,1.89-.75.951-.6,2.065-.873,3.049-1.415,4.56-2.555,9.206-5.028,13.206-8.43.5-.906-.977-1.088-1.419-.531m34.232.423c-.858.943-1.8,1.794-2.681,2.711.048.186.145.561.193.75l.423.115a8.049,8.049,0,0,0,2.774-2.885c.375-.483-.293-1.166-.709-.691m210.856,1.389c-.371.958.49,1.708.992,2.41,1.95,2.317,4.6,3.873,7.008,5.656,3.242,2.429,6.521,4.816,9.611,7.446.286.308.962.364,1.155-.071.487-.486-.186-1.047-.5-1.389-2.655-2.321-5.544-4.356-8.344-6.491s-5.931-3.881-8.252-6.562c-.494-.412-.925-1.237-1.671-1m-16.1,4.59c.026.178.078.535.1.709a42.347,42.347,0,0,0,4,4.958,98.923,98.923,0,0,1,7.108,8.452,11.679,11.679,0,0,0,2.161,2.722,1.389,1.389,0,0,0,.984-.787c-1.627-2.057-3.075-4.248-4.8-6.224-2.458-3.082-5.355-5.782-7.8-8.872-.509-.368-1.04-1.419-1.749-.958m-205.512,5.842c-2.061,2.536-4.817,4.363-7.074,6.7a47.4,47.4,0,0,0-4.037,4.471c-.464.951-2,.345-2.358,1.4-.182.516.26.9.557,1.259.865-.527,2.039-.512,2.726-1.3a61.525,61.525,0,0,1,7.94-7.981,41.821,41.821,0,0,0,6.387-7.063c.579-.557.345-1.894-.661-1.515a47.1,47.1,0,0,0-3.48,4.033M190.346,432.01a5.766,5.766,0,0,0-1.69,2.715c-.175.479.524,1.006.847.564.6-.943,1.214-1.879,1.86-2.789.175-.732-.587-.873-1.017-.49m240.572-.137c-.308.758.453,1.311.85,1.849.728.78,1.226,1.73,1.89,2.562a.729.729,0,0,0,1.292-.408,12.966,12.966,0,0,0-2.674-3.773c-.275-.356-1.222-1.014-1.359-.23M252.386,399.531c3.212-.26,6.837.839,8.519,3.777a10.542,10.542,0,0,1-1.641,11.832,9.883,9.883,0,0,1-7.048,3.153c.093-6.254.193-12.508.171-18.761m105.4.111c4.742,1.274,9.377,3.732,12.337,7.754,2.978,3.881,4.208,8.779,4.753,13.562.772,8.4.379,17.042-2.287,25.1-1.794,5.478-4.523,10.937-9.147,14.557a13.821,13.821,0,0,1-4.765,2.425c.078-21.138-.936-42.265-.891-63.4" transform="translate(-115.399 -114.444)" fill="#66ffde"/>
      <path id="Path_3431" data-name="Path 3431" d="M680.767,476.548a.675.675,0,0,1,1.118.379,39.23,39.23,0,0,1,2.774,6.384c0,1.006-1.144.487-1.266-.152-.676-1.344-1.151-2.781-1.883-4.1-.382-.784-.973-1.586-.743-2.507m206.864,9.3a.79.79,0,0,1,1.307.706c-.479.943-1.352,1.619-1.812,2.574-.906,1.868-2.759,2.989-3.881,4.7a53.928,53.928,0,0,1-4.118,5.485c-3.164,3.558-5.9,7.461-9.009,11.063-.668.661-1.125,1.939-2.247,1.8-.665-.85.52-1.69.9-2.414,3.246-3.948,6.246-8.1,9.626-11.939a59.2,59.2,0,0,0,3.777-5.117c1.029-1.523,2.64-2.585,3.476-4.248a10.047,10.047,0,0,1,1.979-2.607M652.525,496.2c1.081-.724,1.322.887,1.671,1.563.3,1.229,1.868,2.043,1.667,3.342-.865.293-1.381-.643-1.872-1.17a6.018,6.018,0,0,1-1.467-3.736m177.834,5.927a.7.7,0,0,1,1.1.8,6.531,6.531,0,0,1-.843,2.492.7.7,0,0,1-1.289-.319,13.623,13.623,0,0,1,1.029-2.975m66.582,3.506c1.218-1.129,2.729-2.492,4.482-2.336.033.186.1.557.137.739-1.036,1.073-2.514,1.586-3.5,2.718a48.087,48.087,0,0,1-6.053,5.411,2.02,2.02,0,0,1-1.489.39,2.668,2.668,0,0,1,.914-1.675c1.816-1.771,3.821-3.346,5.511-5.247m-249.548,14.91c1.344-.2,2.529.955,3.528,1.749,3.016,2.291,5.318,5.355,8.307,7.672,2.7,2.095,5.637,4.026,7.572,6.907.16.442.052,1.036-.55.891-.862-.431-1.37-1.315-2.035-1.976-2.013-2.243-4.709-3.688-6.915-5.711-3.257-2.7-5.775-6.373-9.618-8.3-.594-.056-.873-.98-.29-1.237m191.738,23.448c.527-.631.966-1.961,2.016-1.37.1.19.312.561.42.746a11.065,11.065,0,0,0-1.786,2.076c-2.3,2.885-4.657,5.734-6.807,8.738a46.883,46.883,0,0,1-3.413,4.018c-.3.483-1.155.913-1.259.018.88-1.586,2.284-2.789,3.268-4.308,2.306-3.465,5.025-6.629,7.561-9.919m39.324,14.5c.427-.193,1.222-.145,1.2.505-.5.888-1.63,1.055-2.521,1.326-.524.178-1.589.1-1.274-.7a9.331,9.331,0,0,1,2.592-1.129m65.694,79.39a2.477,2.477,0,0,1,2.507.2.73.73,0,0,1-.795,1.2c-.743-.115-2.752-.245-1.712-1.4m-279.907,84.34a47.081,47.081,0,0,1,3.48-4.033c1.006-.379,1.24.958.661,1.515a41.823,41.823,0,0,1-6.387,7.063,61.527,61.527,0,0,0-7.94,7.981c-.687.791-1.86.776-2.726,1.3-.3-.36-.739-.743-.557-1.259.36-1.051,1.894-.446,2.358-1.4a47.416,47.416,0,0,1,4.037-4.471c2.258-2.34,5.013-4.167,7.074-6.7" transform="translate(-572.579 -421.539)" fill="#000001"/>
      <path id="Path_3432" data-name="Path 3432" d="M393.974,557.35c.932-.438,1.378.969,1.861,1.556,4.248,6.87,9.923,12.708,14.335,19.467,2.18,3.194,3.918,6.67,6.1,9.86a.769.769,0,0,1-.368,1.374c-1.827-1.931-3.03-4.349-4.49-6.554-3.885-6.57-8.928-12.322-13.473-18.42a39.026,39.026,0,0,1-3.977-6.473c0-.2.011-.605.015-.81m40.716,16.607c-1.534,1.029-2.741-2.685-.784-2.759.189.932.813,1.786.784,2.759m-71.732,7.03c.65-.253,1.073.383,1.5.754,2.117,2.247,4.932,3.766,6.792,6.265.583.509.193,1.5-.628,1.151-2.418-2.756-5.578-4.7-8.088-7.36a.533.533,0,0,1,.427-.81m249.823,6.54c.527-.524,2-.375,1.69.616a22.6,22.6,0,0,0-2.08,1.608c-4.364,5.745-9.726,10.617-15.059,15.438-.706.453-1.563,1.56-2.444.928.048-.163.149-.487.2-.65,4.7-4.545,9.681-8.85,13.915-13.859,1.27-1.352,2.154-3.09,3.777-4.081M559.806,598.1l.936-.234c.538,1.036-.576,1.849-1.036,2.681-.635.643-.906,2.009-2.031,1.809a1.512,1.512,0,0,1,.249-1.719,24.5,24.5,0,0,1,1.883-2.536m-159.53,15.423a.884.884,0,0,1,.36-1.623,4.914,4.914,0,0,0,1.456,1.326c3.3,1.909,6.231,4.367,9.351,6.547,4.928,3.491,9.525,7.464,14.773,10.487a47.852,47.852,0,0,1,5.125,3.394c.056.182.163.542.219.724a3.085,3.085,0,0,1-1.712-.68c-3.153-2.176-6.573-3.933-9.663-6.2-5.318-3.877-10.573-7.839-15.931-11.661-1.237-.925-2.681-1.5-3.977-2.314M382.254,745.1c1-.546,2.083-1.463,3.283-.9a6.6,6.6,0,0,1-2.626,2.284c-3.487,2.276-7.126,4.308-10.684,6.469-3.264,2.02-6.915,3.29-10.276,5.117-.568-.2-1.044-.576-.78-1.233a3.623,3.623,0,0,1,1.214-.795,83.9,83.9,0,0,0,9.67-4.791c3.383-2.08,6.855-4,10.2-6.15m261.432,12.582c1.4.226,2.577,1.147,3.933,1.56,3.049,1.407,6.417,2.12,9.28,3.922.709.475,1.716,1.549.895,2.377-.954.531-1.237-1.021-2.016-1.277-3.729-2-7.973-2.874-11.605-5.069-.5-.349-1.088-.954-.486-1.511m-290.45,2.243c.572-.379,1.69.282,1.006.925-2.811,2.169-6.276,3.142-9.362,4.817a21.112,21.112,0,0,0-3.981,2.1c-.152-.067-.464-.2-.62-.264-.245-1.381,1.667-1.8,2.611-2.373,3.376-1.886,7.119-3.049,10.346-5.2m263.37,50.5c.137-.784,1.084-.126,1.359.23a12.962,12.962,0,0,1,2.674,3.773.729.729,0,0,1-1.292.409c-.665-.832-1.162-1.783-1.89-2.563-.4-.538-1.159-1.092-.85-1.849" transform="translate(-301.086 -493.113)" fill="#010001"/>
      <path id="Path_3433" data-name="Path 3433" d="M676.689,589.575c.472-.2,1.537-.509,1.593.319-.137.791-1.17.954-1.508,1.66a140.919,140.919,0,0,0-7.364,12.987c-2.265,3.988-4.568,7.962-7.216,11.709a12.964,12.964,0,0,1-2.288,2.808c-1.014.089-.628-1.062-.223-1.5A152.152,152.152,0,0,0,670.51,599.39c1.623-2.934,3.212-5.894,5.1-8.671a3.086,3.086,0,0,1,1.084-1.144m-165.62,6.3c.3-.635,1.155-.163,1.255.357,2.024,7.9,6.945,14.609,10.012,22.1.353,1.125,1.378,2.317.973,3.5l-.379-.13c-1.177-1.972-2.054-4.107-3.116-6.142-3.138-6.373-7.037-12.459-8.917-19.374l.171-.3m3.665,27.8c.776.063,1.151.821,1.615,1.341,3.03,4.126,6.009,8.3,9.247,12.266.486.687,1.341,1.686.68,2.525-.917.264-1.125-1-1.619-1.515-3.339-4.259-6.621-8.571-9.6-13.094-.245-.449-.806-1.029-.323-1.522m226.6,4.583c.483-.212,1.4-.1,1.252.635-.26.78-1.214.913-1.864,1.229a20.954,20.954,0,0,1-4.286,1.259.619.619,0,0,1-.23-1.2c1.641-.8,3.42-1.285,5.128-1.924M690.318,775.9l.776-.149c2.31,1.385,4.761,2.521,7.015,4.007,3.372,2.161,6.584,4.56,9.971,6.7,3.272,1.972,6.7,3.684,9.971,5.656,1.764,1.062,3.469,2.225,5.266,3.242,1.17.646,1.912,1.809,2.967,2.607.4.319.973.509,1.2,1.021.568.6-.464,1.634-1.062,1.073a15.729,15.729,0,0,1-2.544-2.273c-1.162-1.251-2.789-1.875-4.163-2.841-5-3.309-10.539-5.711-15.426-9.195a122.047,122.047,0,0,0-10.8-7A12.873,12.873,0,0,1,690.3,776.7c0-.2.011-.6.015-.8M500.385,786.864c.357-.3,1.4-.43,1.315.26.182.5-.438.735-.724,1.021-3.019,2.039-5.749,4.471-8.787,6.484-6.822,4.772-14.412,8.27-21.439,12.712a.782.782,0,0,1-1.259-.553c-.141-1.114,1.181-1.277,1.894-1.73,7.624-4.486,15.646-8.359,22.724-13.711a58.427,58.427,0,0,1,6.276-4.483M732.2,804.716c-.39-.371-.249-1.5.494-1.1,2.425,1.355,4.865,2.692,7.294,4.048.728.316.464,1.252-.16,1.53-1.913-.992-3.758-2.1-5.648-3.123a7.6,7.6,0,0,1-1.979-1.352M462.9,809.941c.442-.557,1.92-.375,1.419.531-4,3.4-8.645,5.875-13.206,8.43-.984.542-2.1.817-3.049,1.415-.546.394-1.136,1.3-1.89.75-.475-1.029.743-1.783,1.5-2.221,3.439-1.326,6.532-3.365,9.748-5.14a59.913,59.913,0,0,0,5.481-3.766m245.088,1.812c.746-.238,1.177.587,1.671,1,2.321,2.681,5.459,4.43,8.252,6.562s5.689,4.17,8.344,6.492c.312.342.984.9.5,1.389-.193.434-.869.379-1.155.07-3.09-2.629-6.369-5.017-9.611-7.446-2.41-1.783-5.058-3.339-7.008-5.656-.5-.7-1.363-1.452-.992-2.41" transform="translate(-394.711 -521.501)" fill="#010000"/>
      <path id="Path_3434" data-name="Path 3434" d="M1056.912,832.242c.494-.865,1.563.178,1.029.858-4.813,7.019-11.442,12.463-17.372,18.479a14.2,14.2,0,0,1-2.537,2.28,1.805,1.805,0,0,1,.587-1.645c5.871-6.866,13.313-12.348,18.293-19.972M869.028,1025c.416-.475,1.085.208.709.691a8.048,8.048,0,0,1-2.774,2.886l-.423-.115c-.048-.19-.145-.565-.193-.75.88-.917,1.823-1.768,2.681-2.711" transform="translate(-766.611 -736.142)" fill="#010101"/>
      <path id="Path_3435" data-name="Path 3435" d="M975.631,965.209c.91-.323,1.511.583,2.068,1.133,2.967,3.364,5.693,6.937,8.708,10.261,2.536,2.778,5.08,5.552,7.6,8.341,1.6,1.764,3.495,3.327,4.664,5.433v.464l-.442.145a18.89,18.89,0,0,1-2.536-2.547c-2.871-2.73-5.448-5.745-8.148-8.638-3.844-4.014-7.212-8.441-10.866-12.615-1.307.687-1.86-1.266-1.051-1.976m176.256,5.415c.594-.513,2.12-.806,1.783.464-3.071,2.191-4.9,5.626-7.639,8.17-4.286,3.992-9.388,6.956-13.911,10.654-.817.561-1.508,1.56-2.622,1.363.375-1.329,1.6-2.1,2.562-2.978,5.051-4.356,11.2-7.479,15.4-12.782,1.47-1.627,2.666-3.55,4.427-4.891m-68.015,62.029a22.889,22.889,0,0,1,5.281-5.455c-1.411,2.859-3.569,5.247-5.444,7.8-.583.731-1.092,1.7-2.15,1.779a11.6,11.6,0,0,1,2.314-4.122m76.282,116.222c.709-.461,1.24.591,1.749.958,2.447,3.09,5.344,5.789,7.8,8.872,1.727,1.976,3.175,4.167,4.8,6.224a1.388,1.388,0,0,1-.984.787,11.677,11.677,0,0,1-2.161-2.722,98.878,98.878,0,0,0-7.108-8.452,42.354,42.354,0,0,1-4-4.958c-.026-.174-.078-.531-.1-.709" transform="translate(-862.979 -854.032)" fill="#000101"/>
      <path id="Path_3436" data-name="Path 3436" d="M135.9,1240.119c7.832.6,15.671,1.036,23.507,1.56,13.956.568,27.711,3.183,41.611,4.375,4.442.349,8.9.46,13.343.761,8.664.267,17.317.787,25.984.984,10.042.3,20.1.554,30.114,1.43,2.143.286,4.326.174,6.454.591,1.816,1.4,4.508,1.084,6.038,2.967-1.433-.115-2.859-.364-4.3-.372-3.1.019-6.2-.375-9.3-.2-2.678.178-5.366.178-8.044.312-.015.071-.048.212-.063.282,1.374-.074,2.67.49,4.04.468a101.174,101.174,0,0,1,10.387.665,10.441,10.441,0,0,1,2.369.408c3.476,1.92,7.557,2.507,10.911,4.69,1.463,1.006,2.689,2.313,4.111,3.379a23.469,23.469,0,0,1-.137,2.392c-1.322-.5-2.614-1.066-3.925-1.589a19.888,19.888,0,0,0-6.172-1.051c-5.021-.122-10.049-.568-15.07-.271a17.185,17.185,0,0,0-3.747-.39c1.419,1.107,3.183,1.6,4.716,2.51,2.38,1.4,5.455,1.586,7.331,3.818a82.848,82.848,0,0,1,6.161,10.183c1.14,2.013,1.277,4.379,2.02,6.536.449,1.667,1.211,3.227,1.7,4.88,1.46,10.5,1.415,21.149,2.937,31.644.468-1.37.227-2.848.546-4.248-.249,3.617.015,7.267-.527,10.862a37.717,37.717,0,0,1-.988,9.262c.134-.888.238-1.771.334-2.655-2.284,1.69-3.784,4.156-5.648,6.254a6.775,6.775,0,0,1-4.319,1.957,100.629,100.629,0,0,0-11.683,1.708,39.566,39.566,0,0,0-11.787-3.1,7.733,7.733,0,0,1-4.456-1.9c-1.738-1.564-4.475-1.86-5.66-4.048-1.43-3.316-2.206-6.863-3.35-10.279a71.549,71.549,0,0,1-1.916-7.331c2.314.761,4.705,1.3,6.97,2.2,1.682.705,3.324,2.273,3.079,4.248-.264,1.575-1.352,2.99-.888,4.661l.966.52a10.39,10.39,0,0,0,.408,4.345c-.022-1.289-.39-2.633.167-3.862,2.384-.312,3.717-2.767,6.068-3.26,1.515-.587,2.878.628,3.766,1.723.962,1.166,1.192,2.956,2.7,3.621,1.285.49,1.5,1.961,2.306,2.919a9.251,9.251,0,0,0,1.463.512c.873.357,1.95,1.519,2.852.847-.46-.813-1.118-1.489-1.615-2.269.512-2.41-.275-4.813-.163-7.23a13.309,13.309,0,0,1,2.269-7.736,27.791,27.791,0,0,0,2.525-3c.891-1.452,2.139-2.633,3.09-4.044l-.509-.869c.509-.282,1.018-.564,1.523-.861-2.644-.163-5.158.772-7.658,1.456-1.355-.145-2.8.16-4.089-.308-2.484-1.552-3.324-4.486-3.951-7.16.821-1.255,1.879-2.347,2.6-3.669a17.84,17.84,0,0,0,.761-4.453,4.156,4.156,0,0,0,.78-4.233c-3.108,2.05-5.871,4.6-9.11,6.45a9.517,9.517,0,0,1-7.045,1.136c-.891-.164-1.849-.706-2.707-.16-3.357,1.645-6.621,3.531-10.205,4.661-4.293,1.348-8.686,2.362-12.964,3.765a20.178,20.178,0,0,1-3.227.832c-4.5.758-8.794,2.507-13.362,2.9a42.457,42.457,0,0,1-21.138-3.357c-1.742-.783-3.6-1.252-5.374-1.938-5.894-2.406-10.179-7.312-15.192-11.033a3.126,3.126,0,0,0,1.385,3.153,5.708,5.708,0,0,1,1.159,1.567,72.347,72.347,0,0,0,5.611,7.724c2.778,3.6,7.234,5.132,11.2,7.015a45.439,45.439,0,0,0,10.469,2.094c3.576.327,7.178.29,10.766.353,3.19-.424,6.339-1.136,9.511-1.66,2.109,1.129,4.516,1.348,6.833,1.753,2.158.349,4.3.776,6.421,1.3a3.915,3.915,0,0,1,2.247,1.1c2.328,2.637,5.084,4.895,7.112,7.791a28.053,28.053,0,0,1,1.593,4.337,20.883,20.883,0,0,1,.958,7.736,14.411,14.411,0,0,1-2.005,6.684,6.289,6.289,0,0,1-6.287,2.867,182.5,182.5,0,0,1-21.327-7.9c-2.7-1.2-5.827-1.764-7.951-3.966-2.28-2.31-4.727-4.445-7.071-6.692-3.012-2.689-6.276-5.077-9.277-7.78-2.351-1.983-4.486-4.2-6.7-6.332-1.92-1.8-3.183-4.293-5.593-5.541a19.62,19.62,0,0,0-9.733-3.532c-3.253-.278-6.324-1.664-9.618-1.612-2.514.071-5.028.152-7.546.152-4.293-.616-8.6-1.222-12.834-2.18-2.016-.416-3.988-1.051-6.038-1.281a180.714,180.714,0,0,1,8.1-61.947m333.625,1.1c4.895.071,9.789.052,14.676-.2a180.332,180.332,0,0,1,7.951,56.469c-4.943.434-9.908,0-14.843.468a84.006,84.006,0,0,0-12.883,2.024,29.45,29.45,0,0,0-11.709,5.31,16.385,16.385,0,0,1-2.837,2.41,6.265,6.265,0,0,0-2.068,1.964c-2.915,3.751-6.265,7.119-9.418,10.662-1.679,1.664-2.99,3.714-4.984,5.032-6.064,4.133-12.6,7.546-18.4,12.069-2.262,1.879-5.091,2.811-7.631,4.226-4.46,2.214-8.508,5.125-12.812,7.6a73,73,0,0,0-13.488,10.276c-1.682,1.767-4.256,1.868-6.462,2.521-1.634-1.608-3.131-3.346-4.657-5.058-.791-.843-1.511-1.883-2.722-2.12a4,4,0,0,1-1.853-2.559c-.865-2.7-.732-5.578-.776-8.381.007-.23.022-.695.034-.929,1.641-.631,1.359-2.514,1.519-3.933a16.748,16.748,0,0,0,5.608-4.022,32.01,32.01,0,0,0,3.584-7.791,93.288,93.288,0,0,0,2.47-14.439c-.015-1.467.836-2.726,1.029-4.148a84.7,84.7,0,0,0,1.378-8.47c.282-3.387-.68-6.711-1.408-9.986-1.537,3.747-.223,8.062-1.939,11.787-.356.735-.861,1.578-1.731,1.734-.977-.267-1.218-1.4-1.6-2.2a40.112,40.112,0,0,0-6.109-10.684,78.063,78.063,0,0,0-6.358-7.022c-2.436-2.481-4.493-5.3-6.893-7.814-.472,1.434.743,2.525,1.229,3.762,1.783,4.215,5.726,6.844,8.445,10.387.178.631.271,1.552-.435,1.905-.765.75-1.8.186-2.692.089-2.54-.4-4.679-1.946-7.086-2.737a13.624,13.624,0,0,0,3.654,3.74c1.66,1.415,4.055.914,5.931,1.842a7.232,7.232,0,0,1,1.964,1.794,7.771,7.771,0,0,0-1.719,1.322c-2.031,2.637-4.029,5.545-7.119,7.03-1.89,1.017-4.118.873-6.094,1.626-1.415.5-2.7,1.278-4.059,1.9-1.248.579-2.726.691-3.747,1.693l-.052.037c-.564-.115-1.129-.234-1.686-.353.824,1.5,2.031,3.424,3.985,3.316,1.485.011,2.971-.03,4.46-.007a20.263,20.263,0,0,1,.758,4.282,6.086,6.086,0,0,1-1.118,2.945c-1.341,2.087-2.941,3.988-4.46,5.946a5.768,5.768,0,0,0-1.066,2.655,9.525,9.525,0,0,0-2.488,3.528c.613,0,1.029-.483,1.486-.821a24.968,24.968,0,0,1,6.046-3.227c2.666-1.322,4.345-3.888,5.66-6.45,1.723-.015,3.194-.973,4.82-1.374,1.047-.334,1.979.535,2.574,1.3a30.685,30.685,0,0,0,2.5,3.87l.03.182c.03.208.1.624.13.832,1.144-1.129,2.314-2.555,4.092-2.484,2.028-.242,3.309,1.56,4.274,3.045a25.615,25.615,0,0,1-2.64,5.79,13.83,13.83,0,0,1-4.571,3.32,20.775,20.775,0,0,1-3.584,1.181,27.007,27.007,0,0,1-10.792,2.436c-.156-.141-.472-.424-.628-.568a12.046,12.046,0,0,1-9.533-2.454c-2.169-1.79-4.635-3.239-6.517-5.351-2.533-2.718-3.833-6.321-4.664-9.878a24.144,24.144,0,0,1-.487-6.291,36.894,36.894,0,0,1,.7-8.649c.4-3.127.524-6.291.761-9.433.275-2.886-.394-5.764-.041-8.645.293-2.986-.126-6.143,1.107-8.957,1.058-.074,1.567-1.047,2.15-1.779,1.875-2.551,4.033-4.939,5.444-7.8a22.887,22.887,0,0,0-5.281,5.455,2.422,2.422,0,0,1,.137-1.407c1.092-2.384,3.119-4.163,4.263-6.514,1.842-3.524,4-7.049,7.242-9.455,2.989-2.009,6.079-4,9.592-4.939,5.8-3.342,12.559-4.211,19.047-5.355a3.317,3.317,0,0,0,1.608-.821c3.951-.587,8.111.282,11.921-1.166-2.191-.869-4.568-.68-6.87-.665-1.645.037-3.3.033-4.935.2.869-1.069,2.466-1.084,3.231-2.273,6-.535,12.025-.4,18.041-.5,4.059-.39,8.14-.286,12.214-.334,8.76-.951,17.588.033,26.367-.605,4.683.108,9.344-1.641,14-.475,2.718.691,5.533.3,8.3.62a11.37,11.37,0,0,0,2.964-.245c2.763-.914,5.715-.7,8.578-.824M296.11,1288.37c.795,2.236.594,4.653.832,6.982.408,4.341.13,8.709.453,13.054.394,4.493.929,8.972,1.437,13.451a9.161,9.161,0,0,0,1.229,3.676,4.879,4.879,0,0,1,.182,1.775,90.275,90.275,0,0,0,.795,10.3c-1.5,1.511-2.8,3.509-5,4.044-1.656.349-3.1-.928-3.858-2.273-1.37-2.562-1.077-5.559-1.044-8.359a33.371,33.371,0,0,1,.293-4.72c.6-3.6.126-7.271.538-10.888.505-5.641.241-11.382,1.552-16.931.895-3.361,1.493-6.8,2.588-10.109m6.072,17.161a8.618,8.618,0,0,1,.5,2.811c.026,2.585.9,5.043,1.389,7.557a63.657,63.657,0,0,1,1.266,9.173,5.714,5.714,0,0,0,.668,2.34,9.251,9.251,0,0,1,.256,2.722c-1.2,1.474-2.109,3.149-3.235,4.675a89.645,89.645,0,0,1-.642-10.885c.282-3.587-.275-7.163-.212-10.755.052-2.547-.026-5.1.007-7.639m-56.911,42.629c2.306-1.326,4.408-3.847,7.308-3.424-.717,3.6-2.674,6.8-4.5,9.926-1.864.015-3.576-1.251-5.351-1.812.457-1.731.8-3.765,2.544-4.69m11.067,8.972c.939.126,1.879.253,2.819.386a12.292,12.292,0,0,0,6.625,5.737c2.8,1.441,6.068,1.474,9.154,1.471,1.448-.074,2.221,1.493,2.462,2.707a6.775,6.775,0,0,1-3.606,2.644c-3.253,1.047-6.692.223-9.874-.661-1.972-.509-3.517-1.89-5.314-2.759a8.1,8.1,0,0,1-3.587-4.04,11.233,11.233,0,0,1,1.322-5.485" transform="translate(-112.929 -1097.354)" fill="#ffc6b2"/>
      <path id="Path_3437" data-name="Path 3437" d="M492.636,1273.514c10.877-1.745,21.9-2.12,32.84-3.331-.765,1.188-2.362,1.2-3.231,2.273a9.719,9.719,0,0,0-3.012.832c.616,1.058,1.864.832,2.9.8a3.318,3.318,0,0,1-1.608.821c-6.488,1.144-13.246,2.013-19.047,5.355-3.513.943-6.6,2.93-9.592,4.939-3.238,2.407-5.4,5.931-7.242,9.455-1.144,2.351-3.172,4.13-4.263,6.514a2.422,2.422,0,0,0-.137,1.407,11.594,11.594,0,0,0-2.314,4.122c-1.233,2.815-.813,5.971-1.107,8.957-.353,2.882.316,5.76.041,8.645-.238,3.142-.357,6.306-.761,9.433a36.9,36.9,0,0,0-.7,8.649,24.147,24.147,0,0,0,.486,6.291c.832,3.557,2.132,7.16,4.664,9.878,1.883,2.113,4.349,3.561,6.517,5.351a12.045,12.045,0,0,0,9.533,2.455c.156.145.472.427.628.568-2.915.245-5.775,1.04-8.712.98-3.81.007-7.62.015-11.43-.015-1.879-.056-4.174-.472-4.95-2.444-1.953-5.1-1.363-10.617-1.315-15.946.4-4.5,1.519-8.913,1.786-13.432.137-3.242,1.018-6.41,1-9.663-.1-3.606.564-7.212.044-10.81-.353-4.8-.252-9.63-.141-14.442a23.1,23.1,0,0,1,2.607-13.187,21.6,21.6,0,0,1,8.4-6.874c2.258-1.207,4.831-1.515,7.245-2.269a34.776,34.776,0,0,1,4.909-1.155c5.875-.813,11.642-2.25,17.521-3.053a10.558,10.558,0,0,0,1.872-.423,1.318,1.318,0,0,0-1.17-.754,14.417,14.417,0,0,0-3.706.182c-6.436,1.018-12.879,1.961-19.3,3.049a40.307,40.307,0,0,0-9.626,2.692,37.654,37.654,0,0,0-7.386,4.783,12.085,12.085,0,0,0-3.2,5.463c-.754,2.544-.613,5.236-1,7.847-.479,4.352.706,8.649.5,13-.111,3.465.431,6.915.308,10.38-.379,2.83,0,5.708-.49,8.534-.8,5.047-.936,10.183-1.979,15.2a52.207,52.207,0,0,0-.694,11.542,25.736,25.736,0,0,0,1.563,10.161c1.125,1.4,2.354,2.978,4.2,3.42a27.845,27.845,0,0,0,7.409.672c2.588.022,5.177.015,7.765-.008,3.246-.041,6.439-1.2,9.693-.65-.721.88-1.968,1.073-3.016,1.341-4.568.279-9.124,1.315-13.714.8-3.2-.442-6.469.026-9.659-.587-1.835,0-2.952-1.69-4.025-2.938-1.916-6.477-1.612-13.332-1.641-20.016.412-3.208-.03-6.462.553-9.652.605-3.925.661-7.9.969-11.858a86.649,86.649,0,0,0-1.1-22.575c-.39-3.506.349-6.989.241-10.495a30.845,30.845,0,0,1,.78-5.972,15.214,15.214,0,0,1,2.752-5.533c2.347-2.711,5.808-3.955,8.968-5.437,3.873-2.08,8.266-2.778,12.582-3.272m-68.178,7.442a35.009,35.009,0,0,1,6.161,1.248c3.194.509,6.4.962,9.585,1.534a24.579,24.579,0,0,1,4.349,2.354,17.847,17.847,0,0,1,4.445,10.6,81.164,81.164,0,0,1-1.734,14.468c-.776,6.053-1.608,12.136-1.211,18.26.646,5.663.082,11.382.505,17.064a45.582,45.582,0,0,1-.078,5.652,9.159,9.159,0,0,1-1.229-3.676c-.509-4.479-1.043-8.957-1.437-13.451-.323-4.345-.045-8.712-.453-13.053-.238-2.328-.037-4.746-.832-6.982,1.3-4.612,2.637-9.366,2.106-14.2a8.432,8.432,0,0,0-1.875-6.209,12.751,12.751,0,0,0-3.416-3.116v-.03a23.4,23.4,0,0,0,.137-2.392c-1.422-1.066-2.648-2.373-4.111-3.379-3.353-2.184-7.435-2.77-10.911-4.69m-14.03,7.16a17.192,17.192,0,0,1,3.747.39c1.7.212,3.405.416,5.091.735,1.909.475,3.847.817,5.763,1.263,2.3.706,4.739.609,7.048,1.248a16.065,16.065,0,0,1,6.655,3.168c.973.873,2.169,1.641,2.644,2.922a20.788,20.788,0,0,1,.182,11.821c-.817,2.677-1.508,5.392-2.317,8.073-1.155,4.947-2.633,9.867-2.808,14.981-.045,3.583-.386,7.149-.59,10.721-.319,1.4-.078,2.878-.546,4.248-1.523-10.495-1.478-21.145-2.937-31.644-.494-1.653-1.255-3.212-1.7-4.88-.743-2.157-.88-4.523-2.02-6.536a82.826,82.826,0,0,0-6.161-10.182c-1.875-2.232-4.95-2.414-7.331-3.818-1.534-.91-3.3-1.4-4.716-2.51m-8.281,36.587c3.238-1.853,6-4.4,9.109-6.45a4.156,4.156,0,0,1-.78,4.234c-.033-.223-.1-.672-.141-.9-.9,2.406-2.748,4.234-4.189,6.306-.98,1.556-2.726,2.328-4.233,3.268a5.853,5.853,0,0,1-5.916-.189,13.693,13.693,0,0,0-5.89-.238c-2.822.39-4.939,2.614-7.739,3.038-3.179.568-6.228,1.634-9.362,2.38-6.97,2.343-14.264,3.465-21.476,4.779-5.845-.278-11.835.123-17.513-1.6-2.893-.557-5.385-2.173-8.051-3.339-2.458-1.467-4.828-3.086-7.178-4.724a15.581,15.581,0,0,1-3.394-4.052,40.119,40.119,0,0,0-3.108-3.4c.008.208.026.628.034.839a3.126,3.126,0,0,1-1.385-3.153c5.013,3.721,9.3,8.627,15.192,11.033,1.775.687,3.632,1.155,5.374,1.938a42.456,42.456,0,0,0,21.138,3.357c4.568-.39,8.861-2.139,13.362-2.9a20.186,20.186,0,0,0,3.227-.832c4.278-1.4,8.671-2.417,12.964-3.766,3.584-1.129,6.848-3.016,10.205-4.661.858-.546,1.816,0,2.707.16a9.516,9.516,0,0,0,7.045-1.136m107.747.022a7.766,7.766,0,0,1,1.719-1.322,9.6,9.6,0,0,1-.8,4.519c-.245.653-.164,1.408-.561,2a18.64,18.64,0,0,1-4.638,5.388c-1.946,1.329-4.408,1.2-6.625,1.686a31.66,31.66,0,0,1-7.862.412,4.645,4.645,0,0,1-2.254-.434c1.021-1,2.5-1.114,3.747-1.694,1.356-.624,2.644-1.4,4.059-1.9,1.976-.754,4.2-.609,6.094-1.626,3.09-1.485,5.088-4.393,7.119-7.03m113.83-.167c4.935-.468,9.9-.033,14.843-.468a36.124,36.124,0,0,1-.2,5.032l-.03-.282c-5.89-.212-11.746.583-17.6,1.159-3.027.46-6.109-.007-9.135.49-2.559.423-5.236.676-7.565,1.916a30.537,30.537,0,0,0-3.253,1.894c-1.2-.357-2.091.494-2.618,1.456a55.748,55.748,0,0,1-6.636,8.612,59.322,59.322,0,0,1-6.124,6.5c-2.12,1.593-4.3,3.112-6.417,4.705-2.369,1.586-4.456,3.569-6.967,4.939-2.8,1.589-5.37,3.584-8.278,4.991-3.394,1.623-6.3,4.059-9.655,5.752-4.111,2.146-7.7,5.1-11.386,7.869-2.759,1.367-4.241,4.252-6.874,5.793-2.061,1.207-3.476,3.246-5.608,4.345a18.747,18.747,0,0,1-4.868,1.875,9.224,9.224,0,0,1-4.326-2.484c2.206-.654,4.78-.754,6.462-2.522a73.029,73.029,0,0,1,13.488-10.276c4.3-2.477,8.352-5.388,12.812-7.6,2.54-1.415,5.37-2.347,7.631-4.226,5.8-4.523,12.337-7.936,18.4-12.069,1.994-1.318,3.305-3.369,4.984-5.032,3.153-3.543,6.5-6.911,9.418-10.662a6.264,6.264,0,0,1,2.069-1.964,16.388,16.388,0,0,0,2.837-2.41,29.448,29.448,0,0,1,11.709-5.31,83.949,83.949,0,0,1,12.883-2.024M512.3,1331.224c.761-1.229,1.831-2.611,3.387-2.707a6.336,6.336,0,0,1,3.153,3.294c1.092,1.89,1.445,4.07,2.069,6.135.375,1.088-.015,2.221-.082,3.327-.279,2.224.178,4.516-.449,6.7-.564,2.065-.613,4.286-1.563,6.231-.966-1.485-2.247-3.287-4.274-3.045-1.779-.071-2.949,1.355-4.092,2.484-.033-.208-.1-.624-.13-.832.617-2.584-.26-5.21-.045-7.824-.449-2.778-2.882-4.724-4.159-7.067,2.722-1.512,4.59-4.1,6.187-6.692m-106.9,1.842c.1-1.081,1.032-1.734,1.716-2.458.628,2.674,1.467,5.607,3.951,7.16,1.292.468,2.733.163,4.089.308-1.556,1.055-3.183,2.013-4.649,3.2a14,14,0,0,1-4.037-1.894,8.287,8.287,0,0,1-1.07-6.313m-112.315-.936c2.518,0,5.032-.082,7.546-.152,3.294-.052,6.365,1.333,9.618,1.612a19.621,19.621,0,0,1,9.733,3.532c2.41,1.248,3.673,3.74,5.593,5.541,2.21,2.132,4.345,4.349,6.7,6.332,3,2.7,6.265,5.092,9.277,7.78,2.343,2.247,4.791,4.382,7.071,6.692,2.124,2.2,5.255,2.763,7.951,3.966a182.54,182.54,0,0,0,21.327,7.9,6.288,6.288,0,0,0,6.287-2.867,14.412,14.412,0,0,0,2.005-6.685,20.883,20.883,0,0,0-.958-7.735,28.044,28.044,0,0,0-1.593-4.337c-2.028-2.9-4.783-5.155-7.112-7.791a3.914,3.914,0,0,0-2.247-1.1c-2.121-.527-4.263-.954-6.421-1.3-2.317-.4-4.724-.624-6.833-1.753,2.117-.646,4.345-.836,6.465-1.474,4.917-1.419,9.774-3.053,14.717-4.393a47.126,47.126,0,0,0,1.214,8.723c.754,4.181,2.243,8.17,3.394,12.248.516,1.887,1.192,3.725,1.894,5.556a11.947,11.947,0,0,0,2.176,2.971,3.978,3.978,0,0,1,.171,3.365c-.587,1.437-2.065,2.269-2.618,3.725-.572,1.552-1.545,3.261-.65,4.9.494-.914.319-2.072,1.006-2.9a18.941,18.941,0,0,1,7.583-5.474c.576-.3,1.107.234,1.634.412.943.546,2.106.49,3.045,1.036a5.239,5.239,0,0,1,.628,2.908c-1.1,2.93-2.681,5.708-3.246,8.82a32.555,32.555,0,0,0-.39,3.758,2.514,2.514,0,0,1-3.153.668c-2.065-1.348-4.56-1.9-6.447-3.539-7.082-3.788-15.515-4.215-22.412-8.433-5.738-3.09-11.95-5.288-17.357-8.972-1.653-.992-3.417-1.779-5.125-2.663-2.525-1.24-5.641-1.757-7.387-4.167-3.572-3.985-7.672-7.5-10.881-11.809a35.883,35.883,0,0,0-8.846-8.957,25.385,25.385,0,0,0-5.8-2.429c-5.86-1.1-11.813-1.883-17.558-3.5m98.6,42.633c-1.742.925-2.087,2.96-2.544,4.69,1.775.561,3.487,1.827,5.351,1.812,1.827-3.127,3.784-6.328,4.5-9.927-2.9-.423-5,2.1-7.308,3.424m-6.963-38.548c2.269-2.05,5.24-3.58,8.378-3.327,1.987-.219,3.595,1.1,5.11,2.169,1.638,1.255,3.7,2.3,4.378,4.4.531,1.649,1.519,3.331,1.114,5.121-.264,1.155-1.426,1.693-2.232,2.429a49.384,49.384,0,0,0-3.777,3.65c-1.222,1.422-1.452,3.346-1.727,5.129l-.966-.52c-.464-1.671.624-3.086.887-4.661.245-1.976-1.4-3.543-3.078-4.248-2.265-.9-4.657-1.437-6.971-2.2-.442-2.637-1.222-5.255-1.118-7.947m28.7,6.046c2.562-1.69,5.162-3.339,7.873-4.779l.509.869c-.951,1.411-2.2,2.592-3.09,4.044a27.765,27.765,0,0,1-2.525,3,13.309,13.309,0,0,0-2.269,7.736c-.111,2.417.676,4.82.163,7.23a23.624,23.624,0,0,1-3.989-8.348c-.111-2.05-.286-4.234.62-6.139a7.729,7.729,0,0,1,2.707-3.617m82.16-2.291a14.562,14.562,0,0,1,3.216-.037c1.025.68,2.08,1.846,1.768,3.179a24.294,24.294,0,0,1-2.005,4.048c-1.073,1.842-1.92,3.944-3.743,5.2-1.716,1.132-3.48,2.2-5.121,3.442a5.766,5.766,0,0,1,1.066-2.655c1.519-1.957,3.119-3.858,4.46-5.945a6.086,6.086,0,0,0,1.118-2.945,20.264,20.264,0,0,0-.758-4.282m6.87,4.846a2.952,2.952,0,0,1,4.508-.836c1.407.943,1.887,2.644,2.458,4.145a12.353,12.353,0,0,1,.869,4.5,30.682,30.682,0,0,1-2.5-3.87c-.594-.769-1.526-1.638-2.574-1.3-1.627.4-3.1,1.359-4.82,1.374q1.053-1.995,2.054-4.011m-105.905,11.457c1.564-3.328,4.078-6.5,7.706-7.643a2.322,2.322,0,0,1,2.886,1.211,40.2,40.2,0,0,0,5.708,11.947,9.236,9.236,0,0,1-1.463-.512c-.81-.958-1.021-2.429-2.306-2.919-1.5-.665-1.734-2.455-2.7-3.621-.888-1.1-2.25-2.31-3.766-1.723-2.351.494-3.684,2.949-6.068,3.261m52.9,5.139c1.125-1.526,2.035-3.2,3.235-4.675a37.583,37.583,0,0,1,.1,8.69,4.905,4.905,0,0,1-.68,1.849,3.06,3.06,0,0,1-1.437-.746c-1.326-1.348-.91-3.406-1.222-5.118m-13.9,7.383c.81-3.7,1.912-7.364,2.005-11.174-.033,2.8-.327,5.8,1.043,8.359.758,1.344,2.2,2.622,3.858,2.273,2.195-.535,3.5-2.532,5-4.044.256,2.091.665,4.248.167,6.335a10.382,10.382,0,0,1-5.481,5.374,10.918,10.918,0,0,1-2.6-.019c-1.385-.037-2.466-1.051-3.465-1.883-.832-1.6-.546-3.495-.524-5.221m-6.536-1.634c1.864-2.1,3.365-4.564,5.649-6.254-.1.884-.2,1.768-.334,2.655-.65,3.234-1.382,6.569-3.257,9.351a5.037,5.037,0,0,1-5.177,2.172,42.815,42.815,0,0,1-6.3-2.08,62.387,62.387,0,0,1-6.584-2.18,100.687,100.687,0,0,1,11.683-1.708,6.774,6.774,0,0,0,4.319-1.957m-22.653,5.559a5.537,5.537,0,0,1,4.783-.015c2.964,1.4,6.235,1.916,9.251,3.164,2.354.769,4.72,1.9,7.264,1.641,1.385-.059,2.633-.876,4.033-.8,1.861.527,4.029,1.144,4.742,3.183-1.166,2.5-3.491,4.1-5.34,6.046a25.616,25.616,0,0,1-4.75,2.952,36.235,36.235,0,0,1-14.179.271c.008.174.022.52.034.694a12.293,12.293,0,0,1-6.625-5.738c-.94-.134-1.879-.26-2.819-.386a11.233,11.233,0,0,0-1.322,5.485,12.66,12.66,0,0,1,.015-8.612c.694-2.08.75-4.434,2.091-6.25.654-.939,1.842-1.181,2.822-1.638" transform="translate(-259.347 -1123.957)" fill="#ff999a"/>
      <path id="Path_3438" data-name="Path 3438" d="M1424.412,1324.27c3.71-.134,7.353.732,11.015,1.177,2.1.215,4.159.653,6.228,1.054,2.655.472,4.854,2.136,7.008,3.647,1.229.8,1.8,2.213,2.521,3.431.717,1.4,1.72,2.681,2.039,4.252.616,2.317.149,4.72.16,7.078-.111,6.231-.6,12.441-1.3,18.631-.048,3.2-.635,6.376-.427,9.585.253,3.123.16,6.261.331,9.388.212,3.925.568,7.839.661,11.772.178,2.536.873,5.021.858,7.576a5.709,5.709,0,0,1-.668-2.34,63.647,63.647,0,0,0-1.266-9.173c-.486-2.514-1.363-4.973-1.389-7.557a8.618,8.618,0,0,0-.5-2.811,47.579,47.579,0,0,1-.375-9.084c-.026-3.179.62-6.309.891-9.466.772-5.971,2.135-11.947,1.742-18a15.676,15.676,0,0,0-11.326-14.453c-3.42-.375-6.77-1.2-10.164-1.742-1.53-1.883-4.222-1.571-6.038-2.967m86.227,90.356c1-.382,2.046-.642,3.019-1.1-.16,1.419.123,3.3-1.519,3.933a4.867,4.867,0,0,0-2.685,3.079,17.2,17.2,0,0,0-.832,6.079,5.992,5.992,0,0,1-2.1-1.626c-.546-3.892,1.422-7.676,4.118-10.361m-.371,13.685a15.8,15.8,0,0,1,1.838-9.927c.045,2.8-.089,5.678.776,8.382a4,4,0,0,0,1.853,2.559c-.29,1.255.784,2.135,1.471,3.027,2.221,2.514,4.226,5.34,7.119,7.138-1.8-.119-3.275-1.2-4.8-2.035a41.856,41.856,0,0,1-3.554-2.767c-2.239-1.552-3.264-4.174-4.7-6.376" transform="translate(-1260.43 -1171.804)" fill="#f99"/>
      <path id="Path_3439" data-name="Path 3439" d="M1344.895,1428.573c5.021-.3,10.049.149,15.07.271-3.272.628-6.692-.107-9.979.464-1.686-.319-3.391-.523-5.091-.735" transform="translate(-1190.067 -1264.024)" fill="#050a09"/>
      <path id="Path_3440" data-name="Path 3440" d="M256.123,2193.2c.434-.171,1.367-.52,1.374.279-.019.9-1.2.969-1.831,1.322-.624.189-1.916.906-2.061-.208.472-.917,1.667-1,2.518-1.393" transform="translate(-224.409 -1940.513)" fill="#000100"/>
      <path id="Path_3441" data-name="Path 3441" d="M855.012,2501.255c.992-.371,1.682,1.285,1.1,1.946-1.036.3-1.367-1.21-1.1-1.946m-217.188,29.453c.431-.383,1.192-.241,1.018.49-.646.91-1.259,1.846-1.861,2.789-.323.441-1.021-.086-.847-.564a5.768,5.768,0,0,1,1.69-2.715" transform="translate(-562.877 -2213.257)" fill="#010100"/>
      <path id="Path_3442" data-name="Path 3442" d="M1384.211,376.417a12.714,12.714,0,0,0,5.756-4.534,25.314,25.314,0,0,0,4.512-10.19c.717-3.65.212-7.84-2.47-10.617-3.435-3.732-8.8-4.653-13.644-4.75a1.117,1.117,0,0,0-1.381,1.259c.022,17.358-.669,34.708-.409,52.065.126,9.132.264,18.275.943,27.388a90.23,90.23,0,0,0,1.1,9.317,5.576,5.576,0,0,0,.958,2.488c.628.431,1.14-.375,1.753-.394a25.354,25.354,0,0,0,4.531-.386,15.253,15.253,0,0,0,10.012-7.23c2.8-4.56,3.669-10,3.851-15.263a57.778,57.778,0,0,0-4.167-22.467c-2.533-6.276-6.172-12.236-11.342-16.685m-5.136-27.953c4.156.141,8.8.951,11.616,4.315,2.317,2.566,2.332,6.369,1.537,9.548a22.612,22.612,0,0,1-5.975,10.647,5.663,5.663,0,0,1-4.568,1.835c-1-.383-1.864-1.066-2.9-1.381.089-8.322.227-16.641.286-24.963m18.557,70.139c-.3,4.924-1.66,10.045-5.14,13.707-2.926,3.242-7.542,4.453-11.787,4.074-2.347-20.2-2.421-40.583-2.028-60.889,3.179,1.062,5.623,3.513,7.8,5.96,8.211,10.406,11.965,23.99,11.156,37.147" transform="translate(-1218.049 -306.432)"/>
      <path id="Path_3443" data-name="Path 3443" d="M1648.092,348.361c2.9.108,5.816.015,8.727.041-.286,8.656-.535,17.317-.445,25.977,0,20.306,1.077,40.594,1.092,60.9.056.613-.167,1.649.672,1.812a1.041,1.041,0,0,0,1.393-1.021c-.03-10.918-.264-21.836-.587-32.751-.531-18.3-.783-36.616-.048-54.91,2.856-.03,5.715.056,8.567-.037,1.281-.045.873-2.336-.382-2.024q-9.292-.005-18.579,0c-1.215-.253-1.575,1.783-.409,2.013" transform="translate(-1457.731 -306.447)"/>
      <path id="Path_3444" data-name="Path 3444" d="M1919.071,433.75l-.533-.37-1.221-.539a22.452,22.452,0,0,1-12.337-10.15c-2.978-5.08-4.207-11.492-4.754-17.753-.772-11-.379-22.308,2.288-32.862,1.794-7.17,4.523-14.316,9.147-19.056a13,13,0,0,1,4.765-3.174l.893-.2.545-.451.439-.493.433-.685a1.424,1.424,0,0,0-1.218-1.7,15.9,15.9,0,0,0-9.41,6.451c-4.546,5.819-6.959,13.811-8.568,21.715a107.018,107.018,0,0,0-1.277,33.834c.936,6.879,2.77,13.855,6.618,18.9,3.127,4.506,7.539,6.922,11.913,8.6.787.219,1.664,1.07,2.44.394a1.584,1.584,0,0,0,.416-1.206l-.249-.762Z" transform="translate(-1679.038 -306.447)"/>
    </g>
  </g>
</svg>
