<svg id="Group_1440" data-name="Group 1440" xmlns="http://www.w3.org/2000/svg" width="186" height="222.414" viewBox="0 0 186 222.414">
  <path id="Path_3326" data-name="Path 3326" d="M168.754,233.578h-49.54V218.1a3.1,3.1,0,0,0-6.193,0v15.481H63.481A15.5,15.5,0,0,0,48,249.059v9.289a3.1,3.1,0,0,0,6.193,0v-9.289a9.3,9.3,0,0,1,9.289-9.289h49.54v18.578a3.1,3.1,0,0,0,6.193,0V239.77h49.54a9.3,9.3,0,0,1,9.289,9.289v9.289a3.1,3.1,0,0,0,6.193,0v-9.289a15.5,15.5,0,0,0-15.481-15.481" transform="translate(-23.23 -104.051)" fill="#d0dbf7"/>
  <path id="Path_3327" data-name="Path 3327" d="M177.317,40.987,170.97,39.4l3.368-5.611a8.323,8.323,0,0,0-1.255-10.175L160.009,10.543a8.315,8.315,0,0,0-10.177-1.252l-5.607,3.364-1.586-6.345A8.318,8.318,0,0,0,134.557,0H116.069a8.318,8.318,0,0,0-8.082,6.309L106.4,12.656l-5.611-3.368a8.323,8.323,0,0,0-10.175,1.255L77.543,23.617A8.322,8.322,0,0,0,76.29,33.794L79.656,39.4l-6.347,1.586A8.318,8.318,0,0,0,67,49.069V67.557a8.318,8.318,0,0,0,6.309,8.082l6.347,1.584-3.368,5.611a8.322,8.322,0,0,0,1.255,10.175l13.073,13.073a8.33,8.33,0,0,0,10.177,1.252l5.607-3.366,1.586,6.347a8.317,8.317,0,0,0,8.082,6.309h18.487a8.317,8.317,0,0,0,8.082-6.309l1.584-6.347,5.611,3.368a8.31,8.31,0,0,0,10.175-1.255l13.073-13.073a8.322,8.322,0,0,0,1.252-10.177l-3.366-5.607,6.347-1.586a8.318,8.318,0,0,0,6.309-8.082V49.069a8.318,8.318,0,0,0-6.309-8.082" transform="translate(-32.426)" fill="#e6ecff"/>
  <path id="Path_3328" data-name="Path 3328" d="M153.866,359A27.9,27.9,0,0,0,126,386.866v6.193a3.1,3.1,0,0,0,3.1,3.1h49.54a3.1,3.1,0,0,0,3.1-3.1v-6.193A27.9,27.9,0,0,0,153.866,359" transform="translate(-60.979 -173.741)" fill="#4294ff"/>
  <path id="Path_3329" data-name="Path 3329" d="M279.866,359A27.9,27.9,0,0,0,252,386.866v6.193a3.1,3.1,0,0,0,3.1,3.1h49.54a3.1,3.1,0,0,0,3.1-3.1v-6.193A27.9,27.9,0,0,0,279.866,359" transform="translate(-121.957 -173.741)" fill="#4294ff"/>
  <path id="Path_3330" data-name="Path 3330" d="M27.866,359A27.9,27.9,0,0,0,0,386.866v6.193a3.1,3.1,0,0,0,3.1,3.1h49.54a3.1,3.1,0,0,0,3.1-3.1v-6.193A27.9,27.9,0,0,0,27.866,359" transform="translate(0 -173.741)" fill="#4294ff"/>
  <path id="Path_3331" data-name="Path 3331" d="M39.481,323.963A15.481,15.481,0,1,0,24,308.481a15.5,15.5,0,0,0,15.481,15.481" transform="translate(-11.615 -141.799)" fill="#4294ff"/>
  <path id="Path_3332" data-name="Path 3332" d="M165.481,323.963A15.481,15.481,0,1,0,150,308.481a15.5,15.5,0,0,0,15.481,15.481" transform="translate(-72.594 -141.799)" fill="#4294ff"/>
  <path id="Path_3333" data-name="Path 3333" d="M291.481,323.963A15.481,15.481,0,1,0,276,308.481a15.5,15.5,0,0,0,15.481,15.481" transform="translate(-133.572 -141.799)" fill="#4294ff"/>
  <path id="Path_3334" data-name="Path 3334" d="M145.639,42a36.639,36.639,0,1,0,36.639,36.639A36.68,36.68,0,0,0,145.639,42" transform="translate(-52.752 -20.326)" fill="#d0dbf7"/>
  <path id="Path_3335" data-name="Path 3335" d="M161.694,107.493l0,.593a5.989,5.989,0,1,0,2.991-5.183l-.515.295L148.293,94.03l15.881-9.168.515.294a5.988,5.988,0,1,0-2.993-5.182l0,.594-14.877,8.588-.515-.3a5.9,5.9,0,0,0-2.966-.819,5.989,5.989,0,1,0,0,11.978A5.9,5.9,0,0,0,146.3,99.2l.516-.3Z" transform="translate(-66.471 -35.811)" fill="#fff"/>
  <rect id="Rectangle_1025" data-name="Rectangle 1025" width="186" height="222" transform="translate(0 0.414)" fill="none"/>
</svg>
